<svg width="500" height="500" viewBox="0 0 500 500" fill="none" xmlns="http://www.w3.org/2000/svg">
<path d="M216.143 102.102C208.649 99.538 201.629 95.341 194.511 91.72C155.254 71.745 109.122 74.8309 74.959 103.837C14.688 155.008 20.635 254.681 76.056 306.3C143.895 369.485 254.706 385.301 340.519 353.447C384.86 336.987 423.901 304.242 443.442 261.17C461.245 221.93 461.66 175.326 445.202 135.57C429.883 98.565 393.514 78.873 354.584 75.357C336.51 73.724 318.727 75.63 301.045 79.379C275.527 84.7889 251.33 107.89 224.435 104.132C221.592 103.735 218.837 103.024 216.143 102.102Z" fill="#FFE3D6"/>
<path d="M83.651 352.567C87.253 332.716 85.352 311.896 78.216 293.025C74.128 282.213 67.965 271.628 58.174 265.484C52.208 270.659 48.678 277.979 46.732 285.633C44.311 295.154 43.238 305.115 44.611 314.842C45.984 324.57 49.911 334.069 56.582 341.281C63.254 348.492 73.827 352.558 83.651 352.567Z" fill="#01BCA7"/>
<path d="M84.24 351.415C80.992 334.407 76.619 317.613 71.167 301.179C68.105 291.949 64.695 282.836 60.956 273.859C60.577 272.95 59.176 273.566 59.555 274.477C66.207 290.447 71.808 306.851 76.289 323.561C80.756 340.222 84.127 357.177 86.368 374.28C87.632 383.922 88.532 393.611 89.076 403.32C89.131 404.302 90.643 404.061 90.589 403.083C89.617 385.744 87.498 368.473 84.24 351.415Z" fill="#154340"/>
<path d="M97.317 354.36C93.371 336.543 95.494 317.439 103.255 300.923C111.016 284.407 124.368 270.58 140.603 262.246C147.051 274.337 151.504 288.422 150.659 302.099C149.813 315.776 144.485 329.286 135.084 339.256C125.683 349.225 111.017 354.663 97.317 354.36Z" fill="#26645F"/>
<path d="M136.29 268.484C124.858 283.474 115.436 299.983 108.271 317.418C101.147 334.751 96.233 353.005 93.727 371.578C92.308 382.092 91.673 392.705 91.83 403.313C91.845 404.284 93.365 404.47 93.351 403.486C93.074 384.809 95.276 366.118 99.811 348C104.355 329.848 111.257 312.27 120.271 295.872C125.349 286.634 131.124 277.782 137.516 269.401C138.115 268.616 136.888 267.701 136.29 268.484Z" fill="#154340"/>
<path d="M89.199 349.835C89.199 349.835 72.019 334.059 71.376 302.7C71.109 289.708 73.247 275.949 79.717 264.493C80.643 262.853 81.661 261.264 82.77 259.741C83.45 258.808 91.335 249.54 92.01 250.211C105.111 263.232 111.983 281.936 111.742 300.405C111.502 318.874 102.636 337.159 89.199 349.835Z" fill="#C08B89"/>
<path d="M89.675 346.533C89.695 327.51 89.967 308.487 90.49 289.472C90.784 278.795 91.158 268.121 91.609 257.45C91.65 256.471 90.13 256.29 90.088 257.277C89.282 276.346 88.725 295.425 88.423 314.509C88.121 333.593 88.072 352.68 88.276 371.765C88.39 382.45 88.585 393.135 88.856 403.817C88.881 404.798 90.393 404.554 90.369 403.58C89.886 384.569 89.655 365.551 89.675 346.533Z" fill="#154340"/>
<path d="M405.604 374.052C404.342 370.396 400.95 367.876 397.422 366.29C393.895 364.704 390.076 363.819 386.6 362.124C383.124 360.429 379.866 357.662 378.952 353.904C377.872 349.464 380.265 345.013 382.341 340.943C384.418 336.872 386.253 331.957 384.167 327.891C381.959 323.587 376.462 322.323 372.788 319.177C368.089 315.152 366.883 307.615 370.092 302.324C371.588 299.858 373.842 297.956 375.659 295.716C377.476 293.476 378.904 290.591 378.267 287.777C380.983 291.205 384.838 293.153 389.09 294.177C393.342 295.201 397.774 295.806 401.647 297.837C405.52 299.868 408.814 303.793 408.511 308.156C408.299 311.21 406.422 313.848 405.1 316.61C403.779 319.372 403.079 322.923 405.007 325.302C406.782 327.493 409.954 327.73 412.639 328.594C418.804 330.578 423.217 337.026 422.833 343.491C422.469 349.621 418.405 354.823 414.452 359.523C410.501 364.222 406.33 367.954 405.604 374.052Z" fill="#C08B89"/>
<path d="M402.764 354.382C400.562 340.875 397.424 327.492 392.634 314.654C389.991 307.569 386.832 300.68 383.084 294.11C382.597 293.257 381.233 293.953 381.723 294.812C388.375 306.475 393.12 319.111 396.533 332.074C400.127 345.726 402.261 359.712 403.846 373.725C404.768 381.877 405.506 390.047 406.244 398.217C406.332 399.194 407.827 398.86 407.739 397.889C406.428 383.351 405.114 368.796 402.764 354.382Z" fill="#154340"/>
<path d="M416.608 371.683C420.813 362.899 428.016 355.583 436.733 351.241C440.514 349.358 444.547 348.027 448.379 346.25C452.212 344.473 455.927 342.172 458.471 338.8C461.015 335.427 462.212 330.818 460.714 326.868C459.219 322.927 455.222 319.734 455.592 315.536C456.097 309.82 464.111 307.621 465.756 302.124C466.699 298.971 465.22 295.547 463.076 293.049C460.933 290.551 458.159 288.68 455.821 286.364C453.483 284.048 451.502 281.141 451.66 277.853C450.376 281.327 446.507 283.133 442.857 283.761C439.206 284.389 435.395 284.214 431.892 285.417C425.697 287.544 421.435 294.276 422.162 300.786C422.477 303.61 423.608 306.271 424.288 309.03C424.968 311.789 425.149 314.875 423.69 317.313C421.451 321.054 416.463 321.8 412.644 323.903C406.005 327.559 402.877 336.51 405.795 343.505C407.017 346.435 411.165 349.694 412.696 352.474C417.996 362.093 417.799 366.909 416.608 371.683Z" fill="#FFE3D6"/>
<path d="M443.707 296.991C436.98 309.264 431.152 322.028 426.301 335.157C421.433 348.333 417.543 361.87 414.677 375.621C413.063 383.366 411.772 391.177 410.806 399.029C410.686 400.007 412.215 400.084 412.335 399.11C414.034 385.292 416.755 371.609 420.475 358.193C424.181 344.827 428.867 331.732 434.486 319.05C437.684 311.832 441.191 304.756 444.986 297.833C445.457 296.972 444.181 296.126 443.707 296.991Z" fill="#154340"/>
<path d="M419.795 246.755C420.457 250.117 416.663 255.419 413.832 257.348C411.001 259.278 407.631 260.226 404.555 261.737C401.48 263.247 398.497 265.613 397.714 268.948C396.374 274.653 401.862 279.664 402.851 285.44C403.608 289.863 401.606 294.35 398.823 297.871C396.04 301.391 392.489 304.219 389.421 307.494C386.353 310.769 383.681 314.731 383.314 319.204C382.837 325.011 386.343 330.452 390.58 334.451C394.817 338.45 399.886 341.509 403.987 345.647C408.088 349.785 411.245 355.531 410.191 361.261C411.5 355.725 416.452 351.366 420.98 347.924C425.509 344.482 430.568 341.744 434.849 337.999C439.13 334.254 442.69 329.16 442.836 323.473C443.095 313.397 432.917 305.47 432.644 295.395C432.508 290.368 434.884 285.67 436.819 281.028C438.754 276.386 440.295 271.109 438.5 266.411C435.191 257.75 422.973 255.466 419.795 246.755Z" fill="#26645F"/>
<path d="M417.958 278.549C416.442 294.207 414.926 309.866 413.41 325.524C411.9 341.126 410.387 356.727 408.956 372.336C408.147 381.156 407.366 389.978 406.624 398.804C406.541 399.786 408.07 399.866 408.153 398.885C409.471 383.202 410.917 367.53 412.41 351.863C413.896 336.262 415.418 320.665 416.928 305.066C417.781 296.254 418.634 287.442 419.487 278.631C419.582 277.648 418.053 277.569 417.958 278.549Z" fill="#154340"/>
<path d="M153.913 430.635L153.964 430.974C154.016 431.478 154.077 431.96 154.17 432.485C154.273 432.917 154.355 433.389 154.448 433.872L206.297 433.86C206.297 433.86 206.379 433.326 206.379 432.483C206.358 432.051 206.327 431.548 206.235 430.962C206.214 430.859 206.204 430.736 206.163 430.623C205.597 427.704 203.469 423.676 196.387 422.383C196.048 422.301 195.688 422.26 195.298 422.209H195.267C194.712 422.127 194.157 422.075 193.561 422.024C193.366 422.014 193.171 421.993 192.975 421.983C178.792 420.876 172.511 416.119 172.511 416.119C172.511 416.119 164.29 417.765 156.581 416.123C156.581 416.123 155.677 417.624 154.876 420.234C154.753 420.676 154.619 421.149 154.496 421.652C154.465 421.745 154.445 421.847 154.414 421.961C154.363 422.156 154.322 422.382 154.28 422.609C154.27 422.67 154.249 422.753 154.249 422.815C154.249 422.866 154.218 422.887 154.218 422.928C154.013 423.997 153.859 425.169 153.797 426.432C153.738 427.747 153.748 429.155 153.913 430.635Z" fill="#C08B89"/>
<path d="M177.659 416.539C177.482 416.377 177.25 416.257 177.004 416.268C176.743 416.28 176.552 416.378 176.349 416.539C176.206 416.652 176.063 416.764 175.92 416.876C175.236 417.403 174.541 417.915 173.834 418.41C173.633 418.551 173.475 418.721 173.408 418.964C173.347 419.186 173.375 419.481 173.502 419.678C173.756 420.072 174.345 420.308 174.77 420.01C175.756 419.32 176.718 418.597 177.66 417.849C177.833 417.711 177.931 417.404 177.931 417.194C177.93 416.967 177.829 416.695 177.659 416.539Z" fill="white"/>
<path d="M181.329 418.188C180.982 417.87 180.356 417.796 180.018 418.188C179.34 418.977 178.583 419.695 177.763 420.335C177.631 420.434 177.5 420.533 177.365 420.628C177.164 420.77 177.007 420.937 176.939 421.182C176.878 421.404 176.905 421.699 177.032 421.896C177.285 422.288 177.877 422.528 178.3 422.228C179.414 421.44 180.438 420.534 181.328 419.498C181.49 419.309 181.6 419.099 181.599 418.843C181.601 418.617 181.499 418.345 181.329 418.188Z" fill="white"/>
<path d="M184.704 419.385C184.527 419.223 184.295 419.102 184.049 419.114C183.821 419.124 183.54 419.196 183.394 419.385L181.293 422.088C181.135 422.291 181.022 422.475 181.022 422.743C181.022 422.97 181.123 423.242 181.294 423.398C181.47 423.56 181.702 423.68 181.949 423.669C182.177 423.659 182.457 423.586 182.604 423.397L184.705 420.694C184.863 420.491 184.976 420.307 184.976 420.039C184.975 419.813 184.874 419.542 184.704 419.385Z" fill="white"/>
<path d="M188.446 420.258C188 420.022 187.434 420.144 187.175 420.597C186.717 421.383 186.262 422.162 185.804 422.948C185.52 423.366 185.648 424.02 186.107 424.263C186.553 424.499 187.119 424.377 187.379 423.924C187.837 423.138 188.292 422.359 188.75 421.573C189.033 421.154 188.905 420.5 188.446 420.258Z" fill="white"/>
<path d="M153.958 430.981C154.018 431.47 154.078 431.969 154.178 432.478C154.268 432.927 154.348 433.396 154.458 433.875L206.295 433.863C206.295 433.863 206.385 433.334 206.385 432.486C206.365 432.047 206.335 431.538 206.235 430.969L153.958 430.981Z" fill="#FFE3D6"/>
<path d="M129.123 430.635L129.072 430.974C129.02 431.478 128.959 431.96 128.866 432.485C128.763 432.917 128.681 433.389 128.588 433.872L76.739 433.86C76.739 433.86 76.657 433.326 76.657 432.483C76.678 432.051 76.709 431.548 76.801 430.962C76.822 430.859 76.832 430.736 76.873 430.623C77.439 427.704 79.567 423.676 86.649 422.383C86.988 422.301 87.348 422.26 87.738 422.209H87.769C88.324 422.127 88.879 422.075 89.475 422.024C89.67 422.014 89.865 421.993 90.061 421.983C104.244 420.876 110.525 416.119 110.525 416.119C110.525 416.119 118.746 417.765 126.455 416.123C126.455 416.123 127.359 417.624 128.16 420.234C128.283 420.676 128.417 421.149 128.54 421.652C128.571 421.745 128.591 421.847 128.622 421.961C128.673 422.156 128.714 422.382 128.756 422.609C128.766 422.67 128.787 422.753 128.787 422.815C128.787 422.866 128.818 422.887 128.818 422.928C129.023 423.997 129.177 425.169 129.239 426.432C129.299 427.747 129.288 429.155 129.123 430.635Z" fill="#C08B89"/>
<path d="M105.378 416.539C105.555 416.377 105.787 416.257 106.033 416.268C106.294 416.28 106.485 416.378 106.688 416.539C106.831 416.652 106.974 416.764 107.117 416.876C107.801 417.403 108.496 417.915 109.203 418.41C109.404 418.551 109.562 418.721 109.629 418.964C109.69 419.186 109.663 419.481 109.536 419.678C109.282 420.072 108.693 420.308 108.268 420.01C107.282 419.32 106.32 418.597 105.378 417.849C105.205 417.711 105.107 417.404 105.107 417.194C105.107 416.967 105.207 416.695 105.378 416.539Z" fill="white"/>
<path d="M101.707 418.188C102.054 417.87 102.68 417.796 103.018 418.188C103.696 418.977 104.453 419.695 105.273 420.335C105.405 420.434 105.536 420.533 105.671 420.628C105.872 420.77 106.029 420.937 106.097 421.182C106.158 421.404 106.131 421.699 106.004 421.896C105.751 422.288 105.159 422.528 104.736 422.228C103.622 421.44 102.598 420.534 101.708 419.498C101.546 419.309 101.436 419.099 101.437 418.843C101.436 418.617 101.537 418.345 101.707 418.188Z" fill="white"/>
<path d="M98.333 419.385C98.51 419.223 98.742 419.102 98.988 419.114C99.216 419.124 99.497 419.196 99.643 419.385L101.744 422.088C101.902 422.291 102.015 422.475 102.015 422.743C102.015 422.97 101.914 423.242 101.743 423.398C101.567 423.56 101.335 423.68 101.088 423.669C100.86 423.659 100.58 423.586 100.433 423.397L98.332 420.694C98.174 420.491 98.061 420.307 98.061 420.039C98.062 419.813 98.163 419.542 98.333 419.385Z" fill="white"/>
<path d="M94.591 420.258C95.037 420.022 95.603 420.144 95.862 420.597C96.32 421.383 96.775 422.162 97.233 422.948C97.517 423.366 97.389 424.02 96.93 424.263C96.484 424.499 95.918 424.377 95.658 423.924C95.199 423.138 94.745 422.359 94.287 421.573C94.004 421.154 94.132 420.5 94.591 420.258Z" fill="white"/>
<path d="M129.079 430.981C129.019 431.47 128.959 431.969 128.859 432.478C128.769 432.927 128.689 433.396 128.579 433.875L76.742 433.863C76.742 433.863 76.652 433.334 76.652 432.486C76.672 432.047 76.702 431.538 76.802 430.969L129.079 430.981Z" fill="#FFE3D6"/>
<path d="M137.969 224.337L156.587 416.12C164.268 418.939 172.511 416.12 172.511 416.12C172.511 416.12 183.209 262.165 173.156 223.955L137.969 224.337Z" fill="#EBA37D"/>
<path d="M110.52 416.12C110.52 416.12 119.074 418.163 126.456 416.12C126.826 413.54 146.056 224.229 146.056 224.229L112.64 223.966C104.385 275.012 110.52 416.12 110.52 416.12Z" fill="#EBA37D"/>
<path d="M173.156 223.954L112.64 223.966C102.899 265.963 106.822 406.637 106.822 406.637C106.822 406.637 117.081 409.364 130.327 406.637L142.207 270.346L153.764 407.156C153.764 407.156 163.133 409.039 174.951 407.156C174.951 407.156 183.737 259.051 173.156 223.954Z" fill="#01BCA7"/>
<path d="M142.062 263.796C141.723 259.575 141.385 255.353 141.046 251.132L140.475 244.017C140.472 243.977 140.456 243.945 140.436 243.918C140.428 243.904 140.418 243.892 140.406 243.882C140.404 243.88 140.402 243.879 140.4 243.878C140.386 243.867 140.371 243.858 140.352 243.852C140.303 243.833 140.249 243.83 140.202 243.846C137.301 244.023 134.564 242.245 133.608 239.486C133.346 238.732 133.224 237.942 133.244 237.144C133.25 236.898 132.869 236.899 132.863 237.144C132.825 238.638 133.279 240.135 134.144 241.354C135.017 242.583 136.282 243.485 137.72 243.932C138.492 244.172 139.305 244.269 140.112 244.23C140.445 248.381 140.778 252.532 141.111 256.683C141.45 260.904 141.788 265.126 142.127 269.347C142.317 271.719 142.508 274.09 142.698 276.462C142.718 276.705 143.099 276.707 143.08 276.462C142.739 272.239 142.4 268.018 142.062 263.796Z" fill="#154340"/>
<path d="M117.676 86.173C117.296 87.077 116.984 88.018 116.744 88.989C113.741 101.182 122.329 114.186 116.316 125.897C114.209 130.001 110.54 133.547 110.973 138.464C111.369 142.962 114.067 147.136 117.637 149.805C122.315 153.303 128.284 154.61 134.11 155.043C142.369 155.657 151.012 154.592 158.089 150.29C165.166 145.987 170.346 138 169.709 129.743C169.253 123.825 166.057 118.697 164.193 113.185C162.119 107.053 163.383 100.577 162.379 94.292C161.153 86.62 156.077 79.457 148.96 76.194C143.595 73.734 136.76 73.342 131.069 74.774C125.034 76.294 120.048 80.522 117.676 86.173Z" fill="#421F09"/>
<path d="M124.431 134.101C115.511 137.562 108.466 174.508 108.466 174.508L77.367 146.263L68.663 153.178C68.663 153.178 90.74 180.06 98.044 188.338C105.349 196.617 119.764 197.883 124.926 184.637C130.088 171.391 124.431 134.101 124.431 134.101Z" fill="#EBA37D"/>
<path d="M78.002 149.262C77.283 147.421 82.922 137.673 80.962 136.294C79.169 135.033 75.826 138.527 75.627 141.009C74.288 138.176 72.387 125.658 69.855 126.402C67.981 126.952 70.47 136.199 70.47 136.199C70.47 136.199 66.415 125.791 64.125 126.928C61.835 128.065 67.242 138.137 67.242 138.137C67.242 138.137 62.151 129.866 60.481 131.079C58.838 132.271 64.819 140.414 64.819 140.414C64.819 140.414 59.156 134.71 58.272 135.453C57.387 136.196 60.03 140.475 62.978 143.117C63.991 149.896 68.977 153.451 68.977 153.451L78.002 149.262Z" fill="#EBA37D"/>
<path d="M124.431 134.101C114.702 138.601 109.378 161.846 109.378 161.846C109.378 161.846 118.717 167.041 127.099 167.3L124.431 134.101Z" fill="#01BCA7"/>
<path d="M174.257 224.714C134.86 233.523 111.473 223.962 111.473 223.962C112.968 219.365 121.752 177.184 121.752 177.184C112.923 174.179 111.932 158.802 121.722 149.525L124.431 134.101L134.527 130.49L147.754 130.399L161.131 134.712L162.498 199.783L174.257 224.714Z" fill="#01BCA7"/>
<path d="M149.995 229.998C145.296 230.138 140.59 229.967 135.913 229.485C131.239 229.003 126.598 228.21 122.029 227.114C119.457 226.497 116.909 225.783 114.39 224.976C114.156 224.901 114.055 225.269 114.289 225.344C118.78 226.783 123.365 227.923 128.008 228.754C132.637 229.582 137.32 230.107 142.018 230.319C144.676 230.439 147.337 230.458 149.996 230.379C150.24 230.372 150.241 229.991 149.995 229.998Z" fill="#154340"/>
<path d="M125.973 177.468C121.493 177.5 117.493 174.319 115.838 170.27C113.938 165.622 114.795 160.333 117.075 155.989C118.327 153.603 119.978 151.451 121.82 149.492C121.854 149.478 121.88 149.449 121.898 149.408C121.913 149.392 121.928 149.375 121.944 149.359C122.017 149.282 122.006 149.19 121.959 149.123C122.562 145.829 123.165 142.535 123.768 139.241C123.812 139.001 123.444 138.898 123.4 139.14C122.785 142.499 122.17 145.859 121.555 149.218C118.151 152.837 115.31 157.243 114.594 162.242C114.236 164.742 114.391 167.338 115.228 169.732C115.993 171.92 117.328 173.875 119.134 175.335C121.065 176.897 123.472 177.868 125.973 177.85C126.218 177.847 126.219 177.466 125.973 177.468Z" fill="#154340"/>
<path d="M154.624 172.342C152.957 174.771 150.193 176.386 147.258 176.644C147.015 176.665 147.013 177.047 147.258 177.025C150.336 176.754 153.204 175.082 154.953 172.534C155.093 172.332 154.762 172.141 154.624 172.342Z" fill="#154340"/>
<path d="M132.356 131.266L129.584 137.643L141.45 147.042L153.138 137.497L150.444 131.266H132.356Z" fill="#26645F"/>
<path d="M150.444 131.266L141.45 147.042L132.356 131.266L134.527 130.49L147.754 130.399L150.444 131.266Z" fill="#EBA37D"/>
<path d="M161.131 134.712C176.742 141.392 191.088 162.052 195.377 168.339C201.091 176.715 200.507 184.117 193.774 189.018C191.018 191.024 156.547 212.441 156.547 212.441L150.444 201.876L182.585 177.884L161.594 156.785L161.131 134.712Z" fill="#EBA37D"/>
<path d="M161.131 134.712C175.543 139.834 187.328 155.515 187.328 155.515C187.328 155.515 180.121 164.865 172.231 169.93L159.959 157.366L161.131 134.712Z" fill="#01BCA7"/>
<path d="M162.934 159.892C161.002 157.755 159.07 155.619 157.138 153.482C156.973 153.3 156.714 153.58 156.878 153.761C157.333 154.265 157.789 154.768 158.244 155.272C157.78 155.05 157.298 154.865 156.803 154.724C156.566 154.657 156.479 155.028 156.715 155.095C157.416 155.294 158.086 155.582 158.716 155.949C158.771 155.981 158.824 155.981 158.869 155.963C160.138 157.366 161.406 158.769 162.675 160.172C162.839 160.353 163.098 160.073 162.934 159.892Z" fill="#154340"/>
<path d="M153.519 200.939C152.278 200.685 151.349 202.03 149.287 201.794C147.225 201.558 144.327 199.447 142.724 199.696C141.122 199.945 130.134 204.585 131.346 206.947C132.067 208.352 138.011 205.493 138.164 205.578C138.316 205.663 131.27 210.044 132.471 211.868C133.673 213.693 141.092 207.616 141.269 207.77C141.445 207.924 136.06 213.11 137.555 214.525C139.05 215.941 143.763 210.384 143.972 210.455C144.181 210.526 141.528 216.033 142.758 216.804C143.988 217.575 147.522 210.983 147.836 211.089C148.149 211.195 150.495 213.441 153.015 213.682C155.535 213.923 159.761 210.44 159.602 208.478C159.443 206.518 155.133 201.269 153.519 200.939Z" fill="#EBA37D"/>
<path d="M120.144 106.373C120.149 106.465 120.162 106.557 120.168 106.648C120.181 106.757 120.186 106.848 120.198 106.957C120.752 112.115 122.603 115.382 125.184 117.82C126.566 119.134 127.853 120.103 128.985 120.967C129.349 121.246 129.689 121.508 130.02 121.769C130.279 121.97 130.521 122.178 130.77 122.395C133.295 124.54 134.714 126.894 134.354 133.631C136.336 139.505 145.069 140.777 148.251 134.383C148.596 126.224 150.519 119.269 152.127 114.805C152.535 113.639 152.928 112.648 153.264 111.853C153.901 110.33 154.347 109.498 154.347 109.498C154.347 109.498 154.929 91.5541 152.605 86.6571C146.939 74.8391 124.677 77.5751 122.471 86.6311C120.354 95.2831 119.726 101.611 120.144 106.373Z" fill="#EBA37D"/>
<path d="M119.807 96.8111C122.109 92.2211 125.568 88.2171 129.775 85.2731C133.586 90.2621 138.946 93.9861 145.026 95.5521C145.728 100.454 149.038 104.986 153.648 106.795C155.238 106.697 156.632 105.263 157.219 103.782C157.806 102.301 157.813 100.664 157.807 99.0711C157.798 96.4321 157.774 93.7621 157.12 91.2051C156.008 86.8581 153.066 83.0701 149.297 80.6341C145.528 78.1991 140.983 77.0771 136.497 77.1431C133.342 77.1891 130.162 77.8181 127.362 79.2731C124.562 80.7281 122.162 83.0441 120.891 85.9321C119.371 89.3841 119.605 93.0461 119.807 96.8111Z" fill="#421F09"/>
<path d="M159.152 110.168C157.14 112.321 154.123 112.772 152.414 111.175C150.705 109.578 150.951 106.538 152.962 104.384C154.974 102.23 157.991 101.779 159.7 103.377C161.409 104.974 161.164 108.014 159.152 110.168Z" fill="#EBA37D"/>
<path d="M158.406 104.414C157.625 103.946 156.552 103.908 155.537 104.316C155.031 104.518 154.658 104.778 154.395 105.109C154.047 105.548 153.927 106.116 154.081 106.591C154.218 107.017 154.537 107.307 154.818 107.562C155.022 107.747 155.214 107.921 155.318 108.123C155.476 108.433 155.41 108.851 155.162 109.096C154.915 109.34 154.496 109.401 154.188 109.238C154.006 109.142 153.784 109.212 153.687 109.392C153.592 109.572 153.66 109.797 153.841 109.892C154.039 109.997 154.257 110.053 154.477 110.065C154.916 110.088 155.365 109.934 155.681 109.621C156.156 109.151 156.279 108.379 155.974 107.784C155.81 107.463 155.546 107.224 155.313 107.013C155.08 106.801 154.86 106.601 154.783 106.362C154.705 106.122 154.78 105.811 154.973 105.567C155.051 105.469 155.155 105.382 155.268 105.299C155.635 105.315 156.089 105.453 156.307 105.719C156.553 106.02 156.654 106.441 156.571 106.819C156.527 107.019 156.653 107.216 156.853 107.26C156.873 107.265 156.893 107.267 156.913 107.268C157.09 107.278 157.254 107.157 157.293 106.978C157.427 106.375 157.272 105.729 156.879 105.25C156.733 105.072 156.545 104.947 156.346 104.843C156.966 104.711 157.568 104.776 158.022 105.048C158.584 105.384 158.978 106.196 158.646 106.823C158.551 107.004 158.62 107.227 158.8 107.323C158.981 107.418 159.204 107.349 159.3 107.169C159.787 106.257 159.375 104.996 158.406 104.414Z" fill="#C16B5B"/>
<path d="M130.311 104.961C129.993 104.799 129.655 104.702 129.299 104.68C128.981 104.661 128.63 104.702 128.366 104.894C128.082 105.1 127.94 105.419 127.912 105.762C127.885 106.09 127.992 106.414 128.114 106.714C128.179 106.875 128.334 107.01 128.521 106.952C128.675 106.904 128.829 106.718 128.759 106.545C128.67 106.326 128.572 106.088 128.575 105.848C128.576 105.725 128.609 105.599 128.682 105.5C128.678 105.506 128.674 105.513 128.67 105.519C128.738 105.413 128.868 105.374 128.984 105.354C128.993 105.352 129.002 105.351 129.015 105.349C129.04 105.348 129.065 105.345 129.09 105.344C129.156 105.341 129.223 105.342 129.29 105.346C129.324 105.348 129.358 105.351 129.392 105.355C129.41 105.357 129.412 105.356 129.417 105.357C129.423 105.358 129.423 105.359 129.438 105.361C129.646 105.399 129.822 105.483 130.018 105.553C130.166 105.606 130.347 105.562 130.425 105.418C130.507 105.269 130.477 105.046 130.311 104.961Z" fill="#C16B5B"/>
<path d="M122.947 96.5881C124.697 95.6421 126.82 95.5522 128.605 96.4762C129.042 96.7022 129.284 97.2822 129.037 97.7352C128.716 98.3242 128.141 98.3232 127.601 98.0792C127.12 97.8612 126.601 97.7271 126.074 97.6851C126.076 97.6561 126.121 97.7062 126.092 97.7052C125.417 97.6682 124.75 97.8052 124.135 98.0812C124.099 98.0972 124.062 98.1152 124.004 98.1422C123.573 98.3702 122.993 98.3552 122.705 97.8972C122.459 97.5042 122.485 96.8381 122.947 96.5881Z" fill="black"/>
<path d="M134.296 96.6681C136.15 95.9451 138.268 96.1191 139.925 97.2571C140.331 97.5361 140.499 98.1401 140.198 98.5601C139.906 98.9661 139.329 99.1311 138.895 98.8331C138.728 98.7181 138.555 98.6191 138.379 98.5201C138.361 98.5111 138.365 98.5131 138.354 98.5071C138.322 98.4931 138.29 98.4781 138.258 98.4641C138.189 98.4341 138.119 98.4061 138.048 98.3801C137.86 98.3091 137.667 98.2501 137.472 98.2021C137.423 98.1901 137.109 98.0951 137.351 98.1721C137.271 98.1471 137.173 98.1451 137.089 98.1351C136.902 98.1131 136.713 98.1021 136.524 98.1011C136.423 98.1001 136.323 98.1061 136.222 98.1081C136.211 98.1081 136.207 98.1081 136.2 98.1081C136.185 98.1101 136.165 98.1131 136.136 98.1161C135.949 98.1391 135.763 98.1721 135.58 98.2161C135.482 98.2401 135.385 98.2661 135.289 98.2961C135.251 98.3081 135.213 98.3201 135.175 98.3331C135.168 98.3361 135.171 98.3341 135.163 98.3381C135.16 98.3391 135.157 98.3391 135.155 98.3401C135.152 98.3411 135.149 98.3421 135.146 98.3431C135.15 98.3421 135.148 98.3421 135.152 98.3411C134.696 98.5141 134.122 98.4271 133.894 97.9371C133.698 97.5151 133.806 96.8581 134.296 96.6681Z" fill="black"/>
<path d="M133.694 109.524C132.496 110.436 130.976 110.856 129.48 110.718C129.066 110.68 129.031 111.324 129.444 111.362C131.115 111.516 132.792 111.019 134.125 110.005C134.455 109.753 134.023 109.274 133.694 109.524Z" fill="#8E4136"/>
<path d="M137.967 103.051C137.995 103.891 137.337 104.595 136.496 104.623C135.655 104.651 134.952 103.992 134.924 103.152C134.896 102.312 135.554 101.608 136.395 101.58C137.235 101.553 137.939 102.211 137.967 103.051Z" fill="black"/>
<path d="M136.34 102.619C136.348 102.864 136.156 103.069 135.911 103.077C135.666 103.085 135.461 102.893 135.453 102.648C135.445 102.403 135.637 102.198 135.882 102.19C136.127 102.182 136.332 102.374 136.34 102.619Z" fill="white"/>
<path d="M126.861 102.745C126.889 103.585 126.23 104.289 125.39 104.317C124.55 104.345 123.846 103.687 123.818 102.846C123.79 102.006 124.449 101.302 125.289 101.274C126.129 101.246 126.833 101.905 126.861 102.745Z" fill="black"/>
<path d="M125.234 102.312C125.242 102.557 125.05 102.762 124.805 102.77C124.56 102.778 124.355 102.586 124.347 102.341C124.339 102.096 124.531 101.891 124.776 101.883C125.02 101.875 125.225 102.067 125.234 102.312Z" fill="white"/>
<path d="M204.65 430.308L204.604 430.636C204.56 431.124 204.505 431.592 204.421 432.1C204.326 432.519 204.252 432.977 204.167 433.445L154.014 433.986C154.014 433.986 153.929 433.47 153.92 432.655C153.936 432.237 153.96 431.75 154.043 431.182C154.062 431.082 154.07 430.963 154.109 430.853C154.625 428.024 156.641 424.105 163.477 422.778C163.804 422.695 164.152 422.651 164.529 422.598H164.559C165.095 422.513 165.631 422.457 166.207 422.401C166.396 422.389 166.585 422.367 166.773 422.355C180.48 421.133 186.505 416.465 186.505 416.465C186.505 416.465 194.475 417.97 201.914 416.299C201.914 416.299 202.804 417.741 203.607 420.258C203.731 420.684 203.865 421.14 203.99 421.626C204.021 421.715 204.042 421.814 204.073 421.923C204.125 422.111 204.167 422.329 204.209 422.548C204.22 422.608 204.24 422.687 204.241 422.747C204.242 422.797 204.272 422.816 204.272 422.856C204.482 423.888 204.643 425.019 204.716 426.242C204.789 427.513 204.794 428.875 204.65 430.308Z" fill="#154340"/>
<path d="M181.531 416.926C181.7 416.767 181.923 416.648 182.162 416.656C182.415 416.665 182.601 416.758 182.799 416.912C182.938 417.02 183.078 417.126 183.218 417.233C183.885 417.736 184.563 418.224 185.252 418.695C185.448 418.829 185.602 418.991 185.67 419.226C185.731 419.44 185.708 419.726 185.587 419.918C185.346 420.301 184.778 420.536 184.364 420.253C183.403 419.596 182.465 418.907 181.546 418.194C181.377 418.063 181.279 417.767 181.277 417.563C181.273 417.342 181.368 417.079 181.531 416.926Z" fill="white"/>
<path d="M177.998 418.561C178.33 418.249 178.935 418.171 179.266 418.547C179.93 419.304 180.67 419.989 181.471 420.6C181.599 420.694 181.728 420.789 181.859 420.879C182.055 421.014 182.209 421.174 182.277 421.41C182.338 421.624 182.315 421.91 182.194 422.102C181.954 422.484 181.384 422.722 180.971 422.437C179.885 421.686 178.885 420.821 178.013 419.828C177.854 419.647 177.746 419.445 177.743 419.197C177.74 418.977 177.835 418.714 177.998 418.561Z" fill="white"/>
<path d="M174.747 419.754C174.916 419.595 175.139 419.477 175.378 419.485C175.598 419.493 175.871 419.56 176.014 419.741L178.076 422.333C178.231 422.528 178.342 422.704 178.345 422.964C178.348 423.184 178.253 423.447 178.089 423.6C177.92 423.759 177.697 423.878 177.458 423.87C177.238 423.862 176.965 423.795 176.821 423.614L174.76 421.022C174.605 420.827 174.493 420.651 174.491 420.391C174.489 420.171 174.584 419.907 174.747 419.754Z" fill="white"/>
<path d="M171.136 420.638C171.565 420.405 172.113 420.517 172.369 420.952C172.821 421.707 173.269 422.456 173.721 423.212C174 423.614 173.884 424.247 173.442 424.487C173.013 424.72 172.465 424.608 172.209 424.173C171.757 423.418 171.309 422.669 170.857 421.913C170.578 421.511 170.695 420.878 171.136 420.638Z" fill="white"/>
<path d="M186.358 410.75C186.442 414.418 186.501 416.46 186.501 416.46C186.501 416.46 193.083 419.47 201.911 416.305C201.911 416.305 202.174 414.238 202.652 410.535C206.188 382.963 221.3 264.613 224.8 232.645H185.784C183.18 273.333 185.701 384.313 186.358 410.75Z" fill="#EBBDA4"/>
<path d="M232.598 430.308L232.644 430.636C232.689 431.124 232.743 431.592 232.827 432.1C232.922 432.519 232.996 432.977 233.081 433.445L283.235 433.986C283.235 433.986 283.32 433.47 283.329 432.655C283.313 432.237 283.289 431.75 283.206 431.182C283.187 431.082 283.179 430.963 283.14 430.853C282.624 428.024 280.608 424.105 273.772 422.778C273.445 422.695 273.097 422.651 272.72 422.598H272.69C272.154 422.513 271.618 422.457 271.042 422.401C270.853 422.389 270.664 422.367 270.476 422.355C256.769 421.133 250.744 416.465 250.744 416.465C250.744 416.465 242.774 417.97 235.335 416.299C235.335 416.299 234.445 417.741 233.642 420.258C233.518 420.684 233.384 421.14 233.259 421.626C233.228 421.715 233.207 421.814 233.176 421.923C233.124 422.111 233.082 422.329 233.04 422.548C233.029 422.608 233.009 422.687 233.008 422.747C233.008 422.797 232.977 422.816 232.977 422.856C232.767 423.888 232.606 425.019 232.533 426.242C232.46 427.513 232.455 428.875 232.598 430.308Z" fill="#154340"/>
<path d="M255.717 416.926C255.548 416.767 255.325 416.648 255.086 416.656C254.833 416.665 254.647 416.758 254.449 416.912C254.31 417.02 254.17 417.126 254.03 417.233C253.363 417.736 252.686 418.224 251.996 418.695C251.8 418.829 251.646 418.991 251.578 419.226C251.517 419.44 251.54 419.726 251.661 419.918C251.902 420.301 252.47 420.536 252.884 420.253C253.845 419.596 254.783 418.907 255.703 418.194C255.872 418.063 255.97 417.767 255.972 417.563C255.976 417.342 255.881 417.079 255.717 416.926Z" fill="white"/>
<path d="M259.25 418.561C258.918 418.249 258.313 418.171 257.983 418.547C257.318 419.304 256.579 419.989 255.779 420.6C255.651 420.694 255.522 420.789 255.391 420.879C255.195 421.014 255.041 421.174 254.973 421.41C254.911 421.624 254.935 421.91 255.056 422.102C255.296 422.484 255.866 422.722 256.279 422.437C257.365 421.686 258.365 420.821 259.237 419.828C259.396 419.647 259.504 419.445 259.507 419.197C259.509 418.977 259.414 418.714 259.25 418.561Z" fill="white"/>
<path d="M262.502 419.754C262.333 419.595 262.11 419.477 261.871 419.485C261.651 419.493 261.378 419.56 261.234 419.741L259.173 422.333C259.018 422.528 258.907 422.704 258.904 422.964C258.901 423.184 258.996 423.447 259.16 423.6C259.329 423.759 259.552 423.878 259.791 423.87C260.011 423.862 260.284 423.795 260.428 423.614L262.489 421.022C262.644 420.827 262.756 420.651 262.759 420.391C262.76 420.171 262.665 419.907 262.502 419.754Z" fill="white"/>
<path d="M266.113 420.638C265.684 420.405 265.136 420.517 264.88 420.952C264.428 421.707 263.98 422.456 263.528 423.212C263.249 423.614 263.365 424.247 263.807 424.487C264.236 424.72 264.785 424.608 265.04 424.173C265.492 423.418 265.94 422.669 266.392 421.913C266.671 421.511 266.554 420.878 266.113 420.638Z" fill="white"/>
<path d="M221.515 232.645C225.039 264.732 233.15 383.859 234.966 410.845C235.205 414.357 235.336 416.304 235.336 416.304C244.176 419.47 250.746 416.459 250.746 416.459C250.746 416.459 250.937 414.428 251.26 410.785C253.613 384.384 263.134 273.118 260.53 232.644H221.515V232.645Z" fill="#EBBDA4"/>
<path d="M254.94 411.115C253.38 411.237 251.301 411.298 249.008 411.321H248.626C243.03 411.367 236.259 411.161 232.482 410.894C231.055 389.699 227.279 311.631 224.013 263.562C223.887 261.666 223.757 259.816 223.632 258.015V258C223.594 257.504 223.559 257.012 223.525 256.524C223.247 252.633 222.976 249.005 222.709 245.69C222.698 245.56 222.686 245.434 222.678 245.308C222.27 240.276 221.881 235.989 221.515 232.647H260.532C263.134 273.117 257.294 384.717 254.94 411.115Z" fill="#26645F"/>
<path d="M226.425 232.647C225.826 238.121 224.945 246.144 223.873 255.814C223.793 256.535 223.713 257.264 223.633 258C223.625 258.053 223.618 258.107 223.614 258.164C218.38 305.405 209.103 388.398 206.219 410.871C204.842 410.963 203.083 411.012 201.142 411.031C201.012 411.031 200.886 411.031 200.757 411.035C195.119 411.073 188.062 410.875 184.106 410.715C183.45 384.279 183.183 273.336 185.785 232.648L226.425 232.647Z" fill="#26645F"/>
<path d="M223.533 249.418C223.465 248.138 223.397 246.858 223.329 245.578C223.412 245.468 223.377 245.285 223.228 245.276C223.156 245.235 223.06 245.238 222.998 245.289C221.674 245.417 220.313 245.022 219.303 244.143C218.264 243.239 217.655 241.907 217.629 240.533C217.624 240.288 217.243 240.292 217.247 240.538C217.275 242.006 217.925 243.449 219.036 244.416C220.105 245.346 221.544 245.797 222.951 245.674C223.194 250.249 223.436 254.824 223.679 259.398C223.75 260.728 223.82 262.058 223.891 263.388C223.904 263.633 224.286 263.629 224.272 263.383C224.026 258.73 223.779 254.074 223.533 249.418Z" fill="#154340"/>
<path d="M257.354 243.244C253.878 243.741 250.325 242.227 248.285 239.37C247.753 238.624 247.328 237.807 247.028 236.941C246.948 236.71 246.579 236.81 246.66 237.042C247.834 240.428 250.799 242.977 254.341 243.576C255.374 243.751 256.419 243.76 257.456 243.612C257.698 243.578 257.595 243.21 257.354 243.244Z" fill="#154340"/>
<path d="M254.944 243.484C254.944 243.541 254.94 243.599 254.94 243.656C254.7 256.004 254.417 268.353 254.089 280.701C253.509 302.689 252.788 324.673 251.93 346.654C251.087 368.219 250.118 389.772 249.008 411.321H248.626C249.236 399.461 249.805 387.597 250.335 375.734C251.312 353.757 252.155 331.777 252.856 309.793C253.566 287.736 254.126 265.672 254.557 243.608C254.561 243.566 254.561 243.528 254.561 243.486C254.566 243.236 254.948 243.236 254.944 243.484Z" fill="#154340"/>
<path d="M219.379 250.988C218.032 262.806 216.686 274.624 215.339 286.438C212.959 307.304 210.582 328.171 208.205 349.037C205.848 369.697 203.494 390.366 201.14 411.03C201.01 411.03 200.884 411.03 200.755 411.034C202.067 399.521 203.38 388.012 204.692 376.503C207.072 355.636 209.449 334.77 211.826 313.903C214.218 292.934 216.606 271.96 218.998 250.987C219.024 250.747 219.406 250.747 219.379 250.988Z" fill="#154340"/>
<path d="M165.02 218.587C163.569 219.69 153.495 217.151 152.766 219.239C152.1 221.148 156.045 223.231 158.297 222.78C156.122 224.684 145.497 229.534 146.796 231.593C147.758 233.116 155.332 228.572 155.332 228.572C155.332 228.572 147.123 234.801 148.711 236.544C150.299 238.288 157.868 230.946 157.868 230.946C157.868 230.946 151.817 237.553 153.315 238.728C154.788 239.884 160.501 232.52 160.501 232.52C160.501 232.52 156.872 238.985 157.754 239.582C158.637 240.179 161.765 236.753 163.364 233.47C169.122 230.858 171.016 225.536 171.016 225.536L165.02 218.587Z" fill="#EBBDA4"/>
<path d="M204.192 187.754C202.842 196.021 173.133 227.951 173.133 227.951C168.555 225.711 160.992 217.461 160.992 217.461L189.294 184.323C189.294 184.323 189.605 129.574 201.79 125.142C201.79 125.142 206.473 173.729 204.192 187.754Z" fill="#E6FDF8"/>
<path d="M184.798 233.245C196.573 239.824 236.751 238.125 254.025 235.709C254.729 235.612 255.372 235.515 256.004 235.406C259.536 234.848 261.733 234.265 261.988 233.755L261.102 227.856L260.386 223.086L259.925 220.088L259.209 215.33L245.444 123.987L241.171 122.919L236.401 121.729L230.441 120.236L216.178 120.357L210.412 122.275L205.532 123.889L201.793 125.139L187.834 213.957L187.069 218.776L186.583 221.896L185.818 226.727L184.798 233.245Z" fill="#FFE3D6"/>
<path d="M214.257 120.994L200.926 290.151H175.409L201.792 125.138L214.257 120.994Z" fill="#E6FDF8"/>
<path d="M199.88 137.222C198.906 143.173 197.933 149.125 196.959 155.076C195.985 161.027 195.012 166.979 194.038 172.93C193.49 176.282 192.941 179.633 192.393 182.985C192.354 183.225 192.722 183.326 192.761 183.084C193.735 177.133 194.708 171.181 195.682 165.23C196.656 159.279 197.629 153.327 198.603 147.376C199.151 144.024 199.7 140.673 200.248 137.321C200.287 137.081 199.919 136.98 199.88 137.222Z" fill="#BEFCF3"/>
<path d="M214.257 120.994L203.525 132.303L208.459 136.913L203.914 144.964L210.362 170.414L214.257 120.994Z" fill="#BEFCF3"/>
<path d="M270.908 290.15H227.802L231.704 120.551L235.046 121.387L236.412 121.726L245.441 123.984L270.908 290.15Z" fill="#E6FDF8"/>
<path d="M231.705 120.551L241.379 133.341L236.542 138.471L239.756 146.133L230.557 170.414L231.705 120.551Z" fill="#BEFCF3"/>
<path d="M213.343 219.374C212.083 219.503 211.598 221.064 209.56 221.455C207.521 221.846 204.125 220.698 202.671 221.415C201.217 222.132 192.118 229.843 193.98 231.735C195.088 232.86 199.906 228.355 200.077 228.391C200.248 228.427 194.833 234.713 196.525 236.095C198.217 237.477 203.481 229.461 203.696 229.555C203.91 229.649 200.321 236.207 202.17 237.112C204.02 238.016 206.857 231.305 207.078 231.31C207.298 231.315 206.413 237.364 207.817 237.732C209.221 238.1 210.624 230.753 210.955 230.76C211.286 230.768 214.195 232.21 216.672 231.687C219.149 231.164 222.14 226.577 221.402 224.753C220.663 222.927 214.982 219.206 213.343 219.374Z" fill="#FABB98"/>
<path d="M245.443 123.985C255.47 128.537 257.733 166.34 258.158 171.714C258.775 179.506 258.303 186.91 253.132 192.805C250.068 196.298 221.515 230.024 221.515 230.024C221.515 230.024 213.004 225.917 208.459 220.049L239.886 178.445L238.912 151.327L245.443 123.985Z" fill="#E6FDF8"/>
<path d="M259.439 184.352C255.477 189.064 251.516 193.777 247.554 198.489C243.592 203.201 239.631 207.914 235.669 212.626C233.443 215.274 231.217 217.921 228.991 220.569C228.835 220.755 229.095 221.034 229.253 220.846C233.215 216.134 237.176 211.421 241.138 206.709C245.1 201.996 249.061 197.284 253.023 192.572C255.249 189.924 257.475 187.277 259.701 184.629C259.857 184.443 259.596 184.164 259.439 184.352Z" fill="#BEFCF3"/>
<path d="M243.096 173.85C241.864 175.475 240.632 177.099 239.399 178.724C238.647 173.099 238.084 167.449 237.717 161.786C237.612 160.167 237.523 158.546 237.449 156.925C237.438 156.681 237.056 156.679 237.067 156.925C237.331 162.717 237.794 168.5 238.459 174.26C238.645 175.873 238.848 177.485 239.065 179.094C239.068 179.113 239.075 179.127 239.082 179.142C236.861 182.07 234.641 184.998 232.42 187.926C231.425 189.238 230.43 190.55 229.436 191.861C229.288 192.057 229.619 192.247 229.765 192.054C233.323 187.362 236.882 182.67 240.44 177.978C241.435 176.666 242.43 175.354 243.425 174.043C243.574 173.847 243.243 173.657 243.096 173.85Z" fill="#BEFCF3"/>
<path d="M235.875 133.064C231.362 132.581 227.299 135.86 226.816 140.372L224.979 157.541C224.84 158.836 225.781 160.002 227.076 160.14L228.363 160.278L228.34 160.496C228.311 160.768 228.508 161.012 228.78 161.041L229.369 161.104C229.641 161.133 229.885 160.936 229.914 160.664L230.12 158.743C230.149 158.471 229.952 158.227 229.68 158.198L229.091 158.135C228.819 158.106 228.575 158.303 228.546 158.575L228.515 158.861L227.228 158.723C226.714 158.668 226.341 158.205 226.396 157.692L228.233 140.523C228.632 136.792 231.993 134.081 235.724 134.48C239.455 134.879 242.166 138.24 241.767 141.971L239.93 159.14C239.875 159.654 239.412 160.027 238.899 159.972L237.513 159.824L237.544 159.538C237.573 159.266 237.376 159.022 237.104 158.993L236.515 158.93C236.243 158.901 235.999 159.098 235.97 159.37L235.764 161.291C235.735 161.563 235.932 161.807 236.204 161.836L236.793 161.899C237.065 161.928 237.309 161.731 237.338 161.459L237.361 161.241L238.747 161.389C240.042 161.528 241.208 160.587 241.346 159.292L243.183 142.123C243.666 137.61 240.388 133.546 235.875 133.064Z" fill="#154340"/>
<path d="M236.831 133.491C236.617 134.197 235.511 133.895 235.725 133.19C236.881 129.364 236.625 125.065 235.046 121.387L236.412 121.726C237.819 125.484 237.995 129.63 236.831 133.491Z" fill="#154340"/>
<path d="M208.127 143.86C208.127 145.868 206.499 147.496 204.491 147.496C202.483 147.496 200.855 145.868 200.855 143.86C200.855 141.852 202.483 140.224 204.491 140.224C206.499 140.224 208.127 141.852 208.127 143.86Z" fill="#154340"/>
<path d="M206.244 143.86C206.244 144.828 205.459 145.613 204.491 145.613C203.523 145.613 202.738 144.828 202.738 143.86C202.738 142.892 203.523 142.107 204.491 142.107C205.459 142.107 206.244 142.892 206.244 143.86Z" fill="#01BCA7"/>
<path d="M208.126 123.029C206.305 125.577 205.739 127.742 205.592 130.87C205.441 134.08 206.794 137.703 205.13 140.694C204.772 141.338 205.76 141.916 206.118 141.272C207.816 138.218 206.702 134.79 206.719 131.518C206.735 128.359 207.903 125.075 209.723 122.501L208.126 123.029Z" fill="#154340"/>
<path d="M233.09 103.642C240.176 98.803 244.64 90.3411 244.633 81.7601C244.632 80.0241 244.451 78.2571 243.77 76.6601C243.089 75.0631 241.852 73.6451 240.224 73.0441C238.1 67.6511 234.505 63.0501 229.506 60.1161C225.85 57.9701 221.688 56.7371 217.467 56.3461C214.628 56.0831 211.721 56.2011 208.997 57.0421C206.273 57.8831 203.734 59.4871 202.073 61.8041C200.412 64.1211 199.71 67.1821 200.513 69.9181C198.413 72.4741 197.042 75.8161 197.219 79.1191C197.396 82.4221 198.85 85.6411 201.212 87.9581C202.97 89.6831 203.608 92.181 205.465 93.798C212.895 100.268 223.242 103.948 233.09 103.642Z" fill="#381A08"/>
<path d="M235.777 98.298C235.777 98.298 230.462 109.12 230.206 123.594C227.137 130.131 218.285 129.073 216.155 123.171C216.315 117.668 215.37 115.08 213.637 113.171C213.493 113.011 213.35 112.87 213.2 112.717C213.097 112.608 212.995 112.513 212.88 112.411C212.676 112.22 212.439 112.043 212.214 111.846C211.895 111.593 211.563 111.34 211.218 111.081H211.211C209.851 110.064 208.257 108.989 206.488 107.391C203.91 105.081 201.996 101.918 201.264 96.986C201.249 96.927 201.24 96.868 201.231 96.802C201.215 96.73 201.206 96.658 201.197 96.585C201.18 96.454 201.169 96.335 201.158 96.21C201.143 96.151 201.141 96.098 201.133 96.046C200.589 91.22 201.074 84.783 203.016 75.908C205.032 66.707 227.479 63.412 233.49 75.248C235.963 80.137 235.777 98.298 235.777 98.298Z" fill="#EBBDA4"/>
<path d="M202.299 74.3831C202.948 75.2971 204.051 75.7601 205.115 76.1151C211.914 78.3851 219.567 77.9821 226.091 75.0121C226.076 75.8921 226.059 76.5811 226.223 77.4461C226.387 78.3101 226.733 79.1601 227.34 79.7961C227.947 80.4321 228.84 80.8291 229.711 80.7111C229.323 83.3401 229.71 86.1801 230.787 88.6101C231.864 91.0401 233.641 93.1541 235.849 94.6331C237.018 90.5031 237.888 86.2321 237.62 81.9481C237.352 77.6641 235.849 73.3411 232.819 70.3011C230.827 68.3031 228.257 66.9361 225.553 66.1311C221.346 64.8781 216.751 64.9601 212.591 66.3621C208.432 67.7651 204.89 70.8391 202.299 74.3831Z" fill="#381A08"/>
<path d="M211.785 94.5331C211.462 94.3681 211.119 94.2691 210.756 94.2471C210.433 94.2271 210.077 94.2701 209.808 94.4641C209.52 94.6731 209.375 94.9971 209.346 95.3461C209.319 95.6801 209.428 96.0091 209.551 96.3131C209.617 96.4761 209.774 96.6141 209.965 96.5551C210.122 96.5061 210.278 96.3171 210.207 96.1411C210.117 95.9181 210.017 95.6761 210.02 95.4321C210.021 95.3071 210.054 95.1791 210.129 95.0791C210.125 95.0861 210.121 95.0921 210.117 95.0981C210.186 94.9901 210.318 94.9511 210.437 94.9301C210.446 94.9281 210.455 94.9271 210.469 94.9251C210.494 94.9251 210.52 94.9211 210.546 94.9201C210.614 94.9171 210.681 94.9181 210.749 94.9221C210.784 94.9241 210.818 94.9281 210.852 94.9311C210.87 94.9331 210.872 94.9321 210.877 94.9331C210.883 94.9341 210.883 94.9341 210.899 94.9371C211.11 94.9751 211.289 95.0611 211.488 95.1321C211.638 95.1851 211.823 95.1411 211.902 94.9951C211.983 94.8461 211.953 94.6191 211.785 94.5331Z" fill="#C16B5B"/>
<path d="M204.301 86.0241C206.08 85.0621 208.237 84.9711 210.052 85.9101C210.496 86.1401 210.742 86.7291 210.491 87.1901C210.165 87.7881 209.581 87.7881 209.032 87.5391C208.543 87.3181 208.015 87.1821 207.48 87.1391C207.482 87.1101 207.527 87.1611 207.498 87.1591C206.812 87.1211 206.134 87.2601 205.509 87.5411C205.472 87.5581 205.435 87.5751 205.376 87.6031C204.938 87.8351 204.348 87.8191 204.056 87.3531C203.804 86.9541 203.831 86.2781 204.301 86.0241Z" fill="black"/>
<path d="M215.834 86.1053C217.718 85.3713 219.87 85.5472 221.554 86.7042C221.966 86.9872 222.137 87.6022 221.831 88.0282C221.535 88.4412 220.948 88.6082 220.507 88.3052C220.338 88.1892 220.162 88.0882 219.983 87.9872C219.965 87.9782 219.969 87.9802 219.958 87.9742C219.926 87.9592 219.893 87.9452 219.861 87.9312C219.791 87.9012 219.719 87.8722 219.648 87.8452C219.457 87.7732 219.261 87.7132 219.062 87.6642C219.012 87.6522 218.694 87.5563 218.939 87.6333C218.857 87.6073 218.758 87.6052 218.673 87.5962C218.483 87.5742 218.291 87.5622 218.099 87.5612C217.997 87.5602 217.895 87.5662 217.792 87.5692C217.781 87.5692 217.777 87.5692 217.769 87.5692C217.754 87.5712 217.734 87.5743 217.704 87.5773C217.514 87.6003 217.325 87.6342 217.139 87.6792C217.04 87.7032 216.941 87.7302 216.843 87.7602C216.804 87.7722 216.766 87.7852 216.727 87.7982C216.72 87.8012 216.723 87.8002 216.714 87.8032C216.711 87.8042 216.708 87.8042 216.706 87.8052C216.703 87.8062 216.7 87.8072 216.697 87.8082C216.701 87.8072 216.7 87.8072 216.703 87.8062C216.24 87.9822 215.657 87.8942 215.424 87.3952C215.227 86.9662 215.336 86.2993 215.834 86.1053Z" fill="black"/>
<path d="M215.222 99.1711C214.005 100.098 212.459 100.524 210.939 100.384C210.518 100.345 210.483 101 210.903 101.039C212.601 101.196 214.305 100.691 215.66 99.6601C215.996 99.4031 215.556 98.9161 215.222 99.1711Z" fill="#8E4136"/>
<path d="M219.565 92.5933C219.594 93.4473 218.924 94.1623 218.07 94.1913C217.216 94.2203 216.501 93.5503 216.472 92.6963C216.444 91.8423 217.113 91.1273 217.967 91.0983C218.821 91.0693 219.537 91.7393 219.565 92.5933Z" fill="black"/>
<path d="M217.912 92.1533C217.92 92.4023 217.725 92.6103 217.476 92.6193C217.227 92.6273 217.019 92.4323 217.01 92.1833C217.002 91.9343 217.197 91.7263 217.445 91.7173C217.695 91.7093 217.903 91.9043 217.912 92.1533Z" fill="white"/>
<path d="M208.278 92.2812C208.306 93.1352 207.637 93.8502 206.783 93.8792C205.929 93.9082 205.214 93.2382 205.185 92.3842C205.157 91.5302 205.826 90.8152 206.68 90.7862C207.534 90.7582 208.249 91.4272 208.278 92.2812Z" fill="black"/>
<path d="M206.624 91.8413C206.632 92.0903 206.437 92.2983 206.188 92.3073C205.939 92.3153 205.731 92.1203 205.722 91.8713C205.714 91.6223 205.909 91.4143 206.158 91.4053C206.407 91.3973 206.616 91.5923 206.624 91.8413Z" fill="white"/>
<path d="M240.657 98.8591C238.673 101.084 235.633 101.611 233.867 100.037C232.101 98.4621 232.278 95.3821 234.261 93.1571C236.245 90.9321 239.285 90.4051 241.051 91.9791C242.817 93.5541 242.641 96.6341 240.657 98.8591Z" fill="#EBBDA4"/>
<path d="M239.768 93.0591C238.967 92.6041 237.881 92.5911 236.864 93.0271C236.357 93.2441 235.986 93.5151 235.728 93.8561C235.387 94.3081 235.278 94.8851 235.445 95.3621C235.594 95.7901 235.923 96.0751 236.214 96.3271C236.424 96.5091 236.623 96.6811 236.733 96.8821C236.9 97.1921 236.843 97.6161 236.598 97.8701C236.354 98.1231 235.932 98.1941 235.617 98.0371C235.431 97.9441 235.207 98.0201 235.115 98.2051C235.023 98.3891 235.097 98.6151 235.283 98.7081C235.485 98.8091 235.707 98.8611 235.931 98.8681C236.375 98.8811 236.826 98.7141 237.139 98.3901C237.609 97.9031 237.715 97.1201 237.392 96.5251C237.218 96.2051 236.946 95.9691 236.706 95.7611C236.465 95.5531 236.238 95.3551 236.154 95.1151C236.07 94.8751 236.138 94.5581 236.328 94.3071C236.404 94.2061 236.507 94.1161 236.62 94.0291C236.992 94.0371 237.453 94.1661 237.681 94.4291C237.937 94.7271 238.049 95.1511 237.974 95.5351C237.934 95.7381 238.066 95.9341 238.269 95.9741C238.289 95.9781 238.31 95.9801 238.33 95.9811C238.51 95.9871 238.672 95.8611 238.708 95.6791C238.829 95.0661 238.657 94.4171 238.249 93.9411C238.097 93.7651 237.904 93.6421 237.7 93.5421C238.324 93.3941 238.934 93.4451 239.4 93.7101C239.976 94.0371 240.394 94.8491 240.073 95.4901C239.981 95.6751 240.056 95.9001 240.241 95.9921C240.426 96.0841 240.65 96.0101 240.743 95.8241C241.207 94.8911 240.761 93.6241 239.768 93.0591Z" fill="#C16B5B"/>
<path d="M374.219 430.308L374.265 430.636C374.309 431.124 374.364 431.592 374.448 432.1C374.543 432.519 374.618 432.977 374.702 433.445L424.855 433.986C424.855 433.986 424.94 433.47 424.949 432.655C424.934 432.237 424.909 431.75 424.826 431.182C424.807 431.082 424.799 430.963 424.76 430.853C424.244 428.024 422.228 424.105 415.392 422.778C415.065 422.695 414.717 422.651 414.34 422.598H414.31C413.774 422.513 413.238 422.457 412.662 422.401C412.473 422.389 412.284 422.367 412.096 422.355C398.389 421.133 392.364 416.465 392.364 416.465C392.364 416.465 384.394 417.97 376.955 416.299C376.955 416.299 376.065 417.741 375.262 420.258C375.138 420.684 375.004 421.14 374.879 421.626C374.848 421.715 374.827 421.814 374.796 421.923C374.744 422.111 374.702 422.329 374.66 422.548C374.65 422.608 374.629 422.687 374.628 422.747C374.627 422.797 374.597 422.816 374.597 422.856C374.387 423.888 374.226 425.019 374.153 426.242C374.08 427.513 374.075 428.875 374.219 430.308Z" fill="#26645F"/>
<path d="M397.338 416.926C397.169 416.767 396.946 416.648 396.707 416.656C396.454 416.665 396.269 416.758 396.07 416.912C395.931 417.02 395.791 417.126 395.651 417.233C394.984 417.736 394.306 418.224 393.617 418.695C393.421 418.829 393.267 418.991 393.199 419.226C393.138 419.44 393.161 419.726 393.282 419.918C393.523 420.301 394.091 420.536 394.505 420.253C395.466 419.596 396.404 418.907 397.323 418.194C397.492 418.063 397.59 417.767 397.592 417.563C397.596 417.342 397.501 417.079 397.338 416.926Z" fill="white"/>
<path d="M400.871 418.561C400.539 418.249 399.934 418.171 399.603 418.547C398.939 419.304 398.199 419.989 397.399 420.6C397.271 420.694 397.142 420.789 397.011 420.879C396.815 421.014 396.661 421.174 396.593 421.41C396.532 421.624 396.555 421.91 396.676 422.102C396.916 422.484 397.486 422.722 397.899 422.437C398.985 421.686 399.985 420.821 400.857 419.828C401.016 419.647 401.124 419.445 401.127 419.197C401.129 418.977 401.034 418.714 400.871 418.561Z" fill="white"/>
<path d="M404.122 419.754C403.953 419.595 403.73 419.477 403.491 419.485C403.271 419.493 402.998 419.56 402.854 419.741L400.793 422.333C400.638 422.528 400.526 422.704 400.524 422.964C400.521 423.184 400.616 423.447 400.78 423.6C400.949 423.759 401.172 423.878 401.411 423.87C401.631 423.862 401.904 423.795 402.048 423.614L404.109 421.022C404.264 420.827 404.376 420.651 404.378 420.391C404.38 420.171 404.285 419.907 404.122 419.754Z" fill="white"/>
<path d="M407.733 420.638C407.304 420.405 406.755 420.517 406.5 420.952C406.048 421.707 405.6 422.456 405.148 423.212C404.869 423.614 404.986 424.247 405.427 424.487C405.856 424.72 406.404 424.608 406.66 424.173C407.112 423.418 407.56 422.669 408.012 421.913C408.291 421.511 408.174 420.878 407.733 420.638Z" fill="white"/>
<path d="M392.511 410.75C392.427 414.418 392.368 416.46 392.368 416.46C392.368 416.46 385.786 419.47 376.957 416.305C376.957 416.305 376.694 414.238 376.216 410.535C372.68 382.963 357.568 264.613 354.068 232.645H393.084C395.689 273.333 393.168 384.313 392.511 410.75Z" fill="#754933"/>
<path d="M346.271 430.308L346.225 430.636C346.181 431.124 346.126 431.592 346.042 432.1C345.947 432.519 345.873 432.977 345.788 433.445L295.634 433.986C295.634 433.986 295.549 433.47 295.54 432.655C295.555 432.237 295.58 431.75 295.663 431.182C295.682 431.082 295.69 430.963 295.729 430.853C296.245 428.024 298.261 424.105 305.097 422.778C305.424 422.695 305.772 422.651 306.149 422.598H306.179C306.715 422.513 307.251 422.457 307.827 422.401C308.016 422.389 308.205 422.367 308.393 422.355C322.1 421.133 328.125 416.465 328.125 416.465C328.125 416.465 336.095 417.97 343.534 416.299C343.534 416.299 344.425 417.741 345.227 420.258C345.351 420.684 345.485 421.14 345.61 421.626C345.641 421.715 345.662 421.814 345.693 421.923C345.745 422.111 345.787 422.329 345.829 422.548C345.84 422.608 345.86 422.687 345.861 422.747C345.862 422.797 345.892 422.816 345.892 422.856C346.102 423.888 346.263 425.019 346.336 426.242C346.409 427.513 346.414 428.875 346.271 430.308Z" fill="#26645F"/>
<path d="M323.152 416.926C323.321 416.767 323.544 416.648 323.783 416.656C324.036 416.665 324.222 416.758 324.42 416.912C324.559 417.02 324.699 417.126 324.839 417.233C325.506 417.736 326.184 418.224 326.873 418.695C327.069 418.829 327.223 418.991 327.291 419.226C327.353 419.44 327.329 419.726 327.208 419.918C326.967 420.301 326.399 420.536 325.985 420.253C325.024 419.596 324.086 418.907 323.166 418.194C322.997 418.063 322.899 417.767 322.896 417.563C322.894 417.342 322.988 417.079 323.152 416.926Z" fill="white"/>
<path d="M319.619 418.561C319.951 418.249 320.556 418.171 320.886 418.547C321.551 419.304 322.29 419.989 323.09 420.6C323.218 420.694 323.347 420.789 323.478 420.879C323.674 421.014 323.828 421.174 323.896 421.41C323.957 421.624 323.934 421.91 323.813 422.102C323.573 422.484 323.003 422.722 322.59 422.437C321.504 421.686 320.504 420.821 319.632 419.828C319.473 419.647 319.365 419.445 319.363 419.197C319.361 418.977 319.455 418.714 319.619 418.561Z" fill="white"/>
<path d="M316.367 419.754C316.536 419.595 316.759 419.477 316.998 419.485C317.218 419.493 317.491 419.56 317.635 419.741L319.696 422.333C319.851 422.528 319.963 422.704 319.966 422.964C319.968 423.184 319.874 423.447 319.71 423.6C319.541 423.759 319.318 423.878 319.079 423.87C318.859 423.862 318.586 423.795 318.442 423.614L316.381 421.022C316.226 420.827 316.114 420.651 316.111 420.391C316.109 420.171 316.204 419.907 316.367 419.754Z" fill="white"/>
<path d="M312.757 420.638C313.186 420.405 313.735 420.517 313.99 420.952C314.442 421.707 314.89 422.456 315.342 423.212C315.621 423.614 315.505 424.247 315.063 424.487C314.634 424.72 314.085 424.608 313.83 424.173C313.378 423.418 312.93 422.669 312.478 421.913C312.198 421.511 312.315 420.878 312.757 420.638Z" fill="white"/>
<path d="M357.354 232.645C353.83 264.732 345.719 383.859 343.903 410.845C343.664 414.357 343.533 416.304 343.533 416.304C334.693 419.47 328.123 416.459 328.123 416.459C328.123 416.459 327.932 414.428 327.609 410.785C325.256 384.384 315.735 273.118 318.339 232.644H357.354V232.645Z" fill="#754933"/>
<path d="M357.354 232.645C353.83 264.732 348.202 383.907 346.387 410.893C340.963 411.275 329.353 411.534 323.929 411.116C321.575 384.715 315.734 273.118 318.338 232.645H357.354Z" fill="#01BCA7"/>
<path d="M394.765 410.715C389.342 410.93 378.075 411.229 372.652 410.87C369.116 383.298 355.946 264.612 352.445 232.644H393.084C395.689 273.333 395.422 384.279 394.765 410.715Z" fill="#01BCA7"/>
<path d="M360.365 240.209C360.034 242.137 358.337 243.502 356.4 243.455C356.363 243.27 356.043 243.304 356.025 243.526C355.597 248.828 355.168 254.13 354.74 259.432C354.62 260.915 354.5 262.399 354.381 263.882C354.361 264.126 354.742 264.104 354.762 263.862C355.19 258.56 355.619 253.258 356.047 247.956C356.158 246.583 356.269 245.209 356.38 243.835C358.494 243.911 360.379 242.384 360.738 240.291C360.779 240.05 360.407 239.967 360.365 240.209Z" fill="#154340"/>
<path d="M377.077 125.138C383.78 127.66 388.26 179.045 388.26 179.045L421.548 214.44L412.424 222.37C412.424 222.37 384.072 196.033 379.495 191.358C374.917 186.683 373.749 179.962 374.041 174.995C374.332 170.028 377.077 125.138 377.077 125.138Z" fill="#754933"/>
<path d="M417.836 213.012C419.65 214.078 426.993 215.735 428.57 218.024C430.146 220.313 434.789 229.263 433.373 230.197C432.475 230.789 428.863 225.304 428.863 225.304C428.863 225.304 431.557 232.605 430.131 233.055C428.706 233.504 426.126 226.083 426.126 226.083C426.126 226.083 428.159 234.139 426.394 234.555C424.629 234.971 423.28 226.593 423.28 226.593C423.28 226.593 423.716 229.515 421.555 230.809C419.881 231.811 417.321 231.688 417.151 230.7C416.982 229.712 419.736 228.998 419.966 228.66C420.196 228.322 420.172 226.658 420.172 226.658C415.85 227.151 412.423 222.37 412.423 222.37L417.836 213.012Z" fill="#754933"/>
<path d="M377.077 125.138C386.052 128.601 389.948 166.521 389.948 166.521C389.948 166.521 385.373 167.819 377.077 167.689V125.138Z" fill="#01BCA7"/>
<path d="M394.071 233.245C382.296 239.824 342.118 238.125 324.844 235.709C324.14 235.612 323.497 235.515 322.865 235.406C319.333 234.848 317.136 234.265 316.881 233.755L317.767 227.856L318.483 223.086L318.944 220.088L319.66 215.33L333.425 123.987L337.698 122.919L342.469 121.729L348.429 120.236L362.692 120.357L368.458 122.275L373.338 123.889L377.077 125.139L391.036 213.957L391.801 218.776L392.287 221.896L393.052 226.727L394.071 233.245Z" fill="#01BCA7"/>
<path d="M373.269 237.561C366.804 237.862 360.329 237.932 353.86 237.769C347.391 237.606 340.927 237.211 334.486 236.585C330.859 236.232 327.24 235.806 323.631 235.307C323.391 235.274 323.287 235.641 323.53 235.675C329.958 236.564 336.416 237.225 342.891 237.651C349.349 238.076 355.821 238.27 362.293 238.231C365.954 238.209 369.614 238.112 373.27 237.942C373.514 237.931 373.515 237.549 373.269 237.561Z" fill="#154340"/>
<path d="M344.232 121.285L342.532 128.064L357.677 135.605L369.208 128.234L366.616 121.66L344.232 121.285Z" fill="#26645F"/>
<path d="M344.232 121.285L357.677 135.605L366.616 121.66L362.693 120.355L348.43 120.234L344.232 121.285Z" fill="#754933"/>
<path d="M362.903 148.925L334.392 171.294L340.341 142.757L333.427 123.985C322.225 128.342 317.652 169.987 317.079 177.379C316.43 185.755 326.169 193.91 335.779 189.962C345.389 186.014 370.943 157.166 370.943 157.166L362.903 148.925Z" fill="#754933"/>
<path d="M361.511 151.059C361.465 149.793 362.945 149.099 363.052 147.026C363.159 144.953 361.555 141.747 362.065 140.207C362.575 138.668 368.963 128.596 371.093 130.181C372.36 131.124 368.56 136.515 368.619 136.68C368.678 136.844 374.161 130.617 375.762 132.103C377.363 133.589 370.147 139.905 370.269 140.104C370.392 140.303 376.395 135.847 377.544 137.554C378.694 139.262 372.436 142.995 372.471 143.212C372.506 143.43 378.376 141.722 378.933 143.062C379.49 144.402 372.406 146.801 372.459 147.128C372.512 147.454 374.341 150.138 374.163 152.663C373.985 155.188 369.853 158.782 367.944 158.302C366.037 157.821 361.571 152.705 361.511 151.059Z" fill="#754933"/>
<path d="M333.426 123.985C320.731 127.173 315.926 166.149 316.121 165.978C316.316 165.807 327.549 169.443 336.38 168.339L341.834 143.6L333.426 123.985Z" fill="#01BCA7"/>
<path d="M342.249 143.604C341.413 144.861 340.577 146.117 339.741 147.374C339.975 145.915 340.222 144.458 340.49 143.005C340.534 142.765 340.167 142.662 340.122 142.903C339.558 145.968 339.068 149.047 338.653 152.136C338.235 155.255 337.893 158.384 337.63 161.519C337.482 163.282 337.359 165.046 337.259 166.813C337.245 167.058 337.627 167.058 337.64 166.813C337.991 160.578 338.645 154.361 339.607 148.19V148.188C339.643 148.176 339.678 148.155 339.704 148.115C340.662 146.676 341.619 145.236 342.577 143.797C342.714 143.591 342.384 143.4 342.249 143.604Z" fill="#154340"/>
<path d="M381.543 153.103C380.91 148.604 380.19 144.118 379.385 139.647C378.93 137.118 378.447 134.595 377.938 132.077C377.889 131.837 377.521 131.938 377.57 132.178C378.471 136.631 379.287 141.1 380.018 145.584C380.748 150.066 381.393 154.563 381.951 159.07C382.265 161.604 382.551 164.142 382.81 166.682C382.835 166.924 383.216 166.926 383.192 166.682C382.729 162.146 382.179 157.618 381.543 153.103Z" fill="#154340"/>
<path d="M345.793 104.443C343.609 105.08 341.046 103.578 340.534 101.362C337.857 101.647 335.075 100.213 333.755 97.867C332.435 95.521 332.653 92.399 334.286 90.259C332.641 88.545 331.756 86.127 331.904 83.757C332.052 81.386 333.232 79.098 335.077 77.602C334.034 74.699 333.824 71.356 335.218 68.605C336.613 65.854 339.876 63.956 342.854 64.759C344.071 60.204 347.841 56.443 352.455 55.473C357.069 54.503 362.158 56.327 365.106 60.006C367.58 58.592 370.724 58.417 373.34 59.548C375.956 60.679 377.983 63.088 378.649 65.859C380.621 66.007 382.453 67.361 383.174 69.203C383.895 71.045 383.468 73.282 382.12 74.729C383.25 75.872 383.687 77.798 383.682 79.406C383.677 81.013 383.012 82.609 381.875 83.745C382.659 85.478 382.614 87.482 381.939 89.261C381.265 91.04 379.861 92.529 378.125 93.307C373.656 95.31 370.216 98.977 365.508 100.328C358.963 102.207 352.33 102.536 345.793 104.443Z" fill="#381A08"/>
<path d="M343.093 98.298C343.093 98.298 348.408 109.12 348.664 123.594C351.732 130.131 360.585 129.073 362.715 123.171C362.555 117.668 363.5 115.08 365.233 113.171C365.377 113.011 365.52 112.87 365.67 112.717C365.773 112.608 365.875 112.513 365.99 112.411C366.194 112.22 366.431 112.043 366.656 111.846C366.975 111.593 367.307 111.34 367.652 111.081H367.659C369.019 110.064 370.612 108.989 372.382 107.391C374.96 105.081 376.874 101.918 377.606 96.986C377.621 96.927 377.63 96.868 377.639 96.802C377.655 96.73 377.664 96.658 377.673 96.585C377.69 96.454 377.701 96.335 377.712 96.21C377.727 96.151 377.729 96.098 377.737 96.046C378.281 91.22 377.796 84.783 375.854 75.908C373.838 66.707 351.391 63.412 345.38 75.248C342.906 80.137 343.093 98.298 343.093 98.298Z" fill="#754933"/>
<path d="M377.42 78.4532C375.89 78.9042 374.094 77.7832 373.826 76.2112C372.311 77.1872 370.08 76.8162 368.962 75.4022C367.785 76.5282 366.089 77.0872 364.473 76.8832C362.857 76.6792 361.353 75.7162 360.493 74.3332C359.857 75.7182 358.695 76.8552 357.296 77.4592C355.896 78.0642 354.273 78.1312 352.828 77.6442C353.274 79.2272 353.041 80.9902 352.199 82.4022C351.356 83.8142 349.916 84.8572 348.311 85.2162C348.602 86.6642 348.62 88.1712 348.375 89.6272C348.13 91.0832 347.507 92.5002 346.466 93.5472C345.425 94.5952 343.946 95.2402 342.474 95.1252C340.641 87.8052 341.59 79.9132 345.186 73.2792C346.602 70.6662 348.471 68.2012 351.032 66.6932C354.43 64.6932 358.588 64.6122 362.531 64.6772C364.965 64.7172 367.426 64.7962 369.773 65.4412C372.12 66.0862 374.375 67.3562 375.76 69.3582C377.577 71.9892 377.418 75.2572 377.42 78.4532Z" fill="#381A08"/>
<path d="M367.085 94.5331C367.408 94.3681 367.751 94.2691 368.114 94.2471C368.437 94.2271 368.793 94.2701 369.062 94.4641C369.35 94.6731 369.495 94.9971 369.524 95.3461C369.551 95.6801 369.442 96.0091 369.319 96.3131C369.253 96.4761 369.096 96.6141 368.905 96.5551C368.748 96.5061 368.592 96.3171 368.663 96.1411C368.753 95.9181 368.853 95.6761 368.85 95.4321C368.849 95.3071 368.816 95.1791 368.741 95.0791C368.745 95.0861 368.749 95.0921 368.753 95.0981C368.684 94.9901 368.552 94.9511 368.434 94.9301C368.425 94.9281 368.416 94.9271 368.402 94.9251C368.377 94.9251 368.351 94.9211 368.325 94.9201C368.257 94.9171 368.19 94.9181 368.122 94.9221C368.088 94.9241 368.053 94.9281 368.019 94.9311C368.001 94.9331 367.999 94.9321 367.994 94.9331C367.988 94.9341 367.988 94.9341 367.972 94.9371C367.761 94.9751 367.582 95.0611 367.383 95.1321C367.233 95.1851 367.048 95.1411 366.969 94.9951C366.886 94.8461 366.916 94.6191 367.085 94.5331Z" fill="#573322"/>
<path d="M374.568 86.0241C372.789 85.0621 370.632 84.9711 368.817 85.9101C368.373 86.1401 368.127 86.7291 368.378 87.1901C368.704 87.7881 369.288 87.7881 369.837 87.5391C370.326 87.3181 370.854 87.1821 371.389 87.1391C371.387 87.1101 371.342 87.1611 371.371 87.1591C372.057 87.1211 372.735 87.2601 373.36 87.5411C373.397 87.5581 373.434 87.5751 373.493 87.6031C373.931 87.8351 374.521 87.8191 374.813 87.3531C375.065 86.9541 375.038 86.2781 374.568 86.0241Z" fill="black"/>
<path d="M363.035 86.1053C361.151 85.3713 358.999 85.5472 357.315 86.7042C356.903 86.9872 356.732 87.6022 357.038 88.0282C357.334 88.4412 357.921 88.6082 358.362 88.3052C358.531 88.1892 358.707 88.0882 358.886 87.9872C358.904 87.9782 358.9 87.9802 358.911 87.9742C358.943 87.9592 358.976 87.9452 359.008 87.9312C359.078 87.9012 359.15 87.8722 359.221 87.8452C359.412 87.7732 359.608 87.7132 359.807 87.6642C359.857 87.6522 360.175 87.5563 359.93 87.6333C360.012 87.6073 360.111 87.6052 360.196 87.5962C360.386 87.5742 360.578 87.5622 360.77 87.5612C360.872 87.5602 360.974 87.5662 361.077 87.5692C361.088 87.5692 361.092 87.5692 361.1 87.5692C361.115 87.5712 361.135 87.5743 361.165 87.5773C361.355 87.6003 361.544 87.6342 361.73 87.6792C361.829 87.7032 361.928 87.7302 362.026 87.7602C362.065 87.7722 362.103 87.7852 362.142 87.7982C362.149 87.8012 362.146 87.8002 362.155 87.8032C362.158 87.8042 362.161 87.8042 362.164 87.8052C362.167 87.8062 362.17 87.8072 362.173 87.8082C362.169 87.8072 362.17 87.8072 362.167 87.8062C362.63 87.9822 363.213 87.8942 363.445 87.3952C363.643 86.9662 363.533 86.2993 363.035 86.1053Z" fill="black"/>
<path d="M363.647 99.1711C364.865 100.098 366.41 100.524 367.93 100.384C368.351 100.345 368.386 101 367.966 101.039C366.268 101.196 364.564 100.691 363.209 99.6601C362.873 99.4031 363.313 98.9161 363.647 99.1711Z" fill="#573322"/>
<path d="M359.304 92.5933C359.275 93.4473 359.945 94.1623 360.799 94.1913C361.653 94.2203 362.368 93.5503 362.397 92.6963C362.426 91.8423 361.756 91.1273 360.902 91.0983C360.048 91.0693 359.332 91.7393 359.304 92.5933Z" fill="black"/>
<path d="M360.957 92.1533C360.949 92.4023 361.144 92.6103 361.393 92.6193C361.642 92.6273 361.85 92.4323 361.859 92.1833C361.867 91.9343 361.672 91.7263 361.423 91.7173C361.174 91.7093 360.966 91.9043 360.957 92.1533Z" fill="white"/>
<path d="M370.591 92.2812C370.563 93.1352 371.232 93.8502 372.086 93.8792C372.94 93.9082 373.655 93.2382 373.684 92.3842C373.713 91.5302 373.043 90.8152 372.189 90.7862C371.335 90.7582 370.62 91.4272 370.591 92.2812Z" fill="black"/>
<path d="M372.245 91.8413C372.237 92.0903 372.432 92.2983 372.681 92.3073C372.93 92.3153 373.138 92.1203 373.147 91.8713C373.155 91.6223 372.96 91.4143 372.711 91.4053C372.462 91.3973 372.253 91.5923 372.245 91.8413Z" fill="white"/>
<path d="M338.212 98.8591C340.196 101.084 343.236 101.611 345.002 100.037C346.768 98.4621 346.591 95.3821 344.608 93.1571C342.624 90.9321 339.584 90.4051 337.818 91.9791C336.052 93.5541 336.228 96.6341 338.212 98.8591Z" fill="#754933"/>
<path d="M339.101 93.0591C339.902 92.6041 340.988 92.5911 342.005 93.0271C342.512 93.2441 342.883 93.5151 343.141 93.8561C343.482 94.3081 343.591 94.8851 343.424 95.3621C343.275 95.7901 342.946 96.0751 342.655 96.3271C342.445 96.5091 342.246 96.6811 342.136 96.8821C341.969 97.1921 342.026 97.6161 342.271 97.8701C342.515 98.1231 342.937 98.1941 343.252 98.0371C343.438 97.9441 343.662 98.0201 343.754 98.2051C343.846 98.3891 343.771 98.6151 343.586 98.7081C343.383 98.8091 343.162 98.8611 342.938 98.8681C342.494 98.8811 342.043 98.7141 341.731 98.3901C341.261 97.9031 341.155 97.1201 341.478 96.5251C341.652 96.2051 341.924 95.9691 342.164 95.7611C342.405 95.5531 342.632 95.3551 342.716 95.1151C342.8 94.8751 342.732 94.5581 342.542 94.3071C342.466 94.2061 342.363 94.1161 342.25 94.0291C341.878 94.0371 341.417 94.1661 341.189 94.4291C340.933 94.7271 340.821 95.1511 340.896 95.5351C340.936 95.7381 340.804 95.9341 340.6 95.9741C340.58 95.9781 340.56 95.9801 340.539 95.9811C340.359 95.9871 340.197 95.8611 340.161 95.6791C340.04 95.0661 340.212 94.4171 340.62 93.9411C340.772 93.7651 340.965 93.6421 341.168 93.5421C340.544 93.3941 339.934 93.4451 339.468 93.7101C338.892 94.0371 338.474 94.8491 338.795 95.4901C338.887 95.6751 338.812 95.9001 338.627 95.9921C338.442 96.0841 338.218 96.0101 338.125 95.8241C337.662 94.8911 338.108 93.6241 339.101 93.0591Z" fill="#573322"/>
<path d="M284.485 77.989C280.708 80.103 277.489 82.977 275.456 86.314C274.927 87.181 274.467 88.088 274.082 89.025C272.848 92.023 272.96 95.435 271.313 98.27C269.818 100.842 267.107 102.464 264.868 104.457C262.629 106.45 260.705 109.382 261.569 112.222C262.399 114.949 265.511 116.572 266.327 119.303C267.348 122.72 264.374 125.979 261.412 128.045C258.45 130.112 254.944 132.201 254.191 135.679C253.652 138.172 254.771 140.803 256.557 142.67C258.343 144.537 260.721 145.753 263.116 146.783C278.552 153.418 296.831 153.417 312.226 146.78C316.192 145.07 320.35 142.459 321.228 138.316C322.078 134.302 319.544 130.42 317.209 127.002C314.874 123.584 312.523 119.515 313.752 115.596C314.703 112.567 317.659 110.305 318.079 107.162C318.672 102.722 314.365 99.381 313.328 95.315C312.628 92.571 313.376 89.692 313.496 86.924C313.702 82.18 311.193 77.648 306.652 75.718C299.895 72.845 291.285 74.184 284.485 77.989Z" fill="#421F09"/>
<path d="M283.046 430.748L282.995 431.087C282.943 431.591 282.882 432.074 282.789 432.598C282.686 433.03 282.604 433.502 282.511 433.985L230.662 433.973C230.662 433.973 230.58 433.439 230.58 432.596C230.601 432.164 230.632 431.661 230.724 431.075C230.745 430.972 230.755 430.849 230.796 430.736C231.362 427.817 233.49 423.789 240.572 422.496C240.911 422.414 241.271 422.373 241.661 422.322H241.692C242.247 422.24 242.802 422.189 243.398 422.138C243.593 422.128 243.788 422.107 243.984 422.097C258.167 420.99 264.448 416.233 264.448 416.233C264.448 416.233 272.669 417.88 280.378 416.237C280.378 416.237 281.282 417.738 282.083 420.348C282.206 420.79 282.34 421.263 282.463 421.766C282.494 421.859 282.514 421.961 282.545 422.075C282.596 422.27 282.637 422.496 282.679 422.722C282.689 422.784 282.71 422.866 282.71 422.928C282.71 422.98 282.741 423 282.741 423.041C282.946 424.11 283.1 425.282 283.162 426.545C283.221 427.86 283.211 429.268 283.046 430.748Z" fill="#FFE3D6"/>
<path d="M259.3 416.652C259.477 416.49 259.709 416.37 259.955 416.381C260.216 416.393 260.407 416.491 260.61 416.652C260.753 416.765 260.896 416.877 261.039 416.989C261.723 417.516 262.418 418.028 263.125 418.523C263.326 418.664 263.484 418.833 263.551 419.077C263.612 419.299 263.585 419.594 263.458 419.791C263.204 420.185 262.615 420.421 262.19 420.123C261.204 419.433 260.242 418.71 259.3 417.962C259.127 417.824 259.029 417.517 259.029 417.307C259.029 417.08 259.13 416.808 259.3 416.652Z" fill="white"/>
<path d="M255.63 418.301C255.977 417.983 256.603 417.909 256.94 418.301C257.618 419.09 258.375 419.808 259.195 420.448C259.327 420.547 259.458 420.646 259.593 420.741C259.794 420.883 259.951 421.05 260.019 421.295C260.08 421.517 260.053 421.812 259.926 422.009C259.673 422.401 259.081 422.641 258.658 422.341C257.544 421.553 256.52 420.647 255.63 419.611C255.467 419.422 255.358 419.212 255.359 418.956C255.358 418.73 255.459 418.458 255.63 418.301Z" fill="white"/>
<path d="M252.255 419.498C252.432 419.336 252.664 419.215 252.91 419.227C253.138 419.237 253.419 419.31 253.565 419.498L255.666 422.201C255.824 422.404 255.937 422.588 255.937 422.856C255.937 423.083 255.836 423.355 255.665 423.511C255.489 423.673 255.257 423.793 255.01 423.782C254.782 423.772 254.502 423.699 254.355 423.51L252.254 420.807C252.096 420.604 251.983 420.42 251.983 420.152C251.984 419.926 252.085 419.655 252.255 419.498Z" fill="white"/>
<path d="M248.513 420.371C248.959 420.135 249.525 420.257 249.784 420.71C250.243 421.496 250.697 422.275 251.155 423.061C251.439 423.479 251.311 424.133 250.852 424.376C250.406 424.612 249.84 424.49 249.58 424.037C249.121 423.251 248.667 422.472 248.209 421.686C247.926 421.267 248.054 420.613 248.513 420.371Z" fill="white"/>
<path d="M283.001 431.094C282.941 431.583 282.881 432.082 282.781 432.591C282.691 433.04 282.611 433.509 282.501 433.988L230.664 433.976C230.664 433.976 230.574 433.447 230.574 432.599C230.594 432.16 230.624 431.651 230.724 431.082L283.001 431.094Z" fill="#C08B89"/>
<path d="M315.767 430.748L315.818 431.087C315.87 431.591 315.931 432.074 316.024 432.598C316.127 433.03 316.209 433.502 316.302 433.985L368.151 433.973C368.151 433.973 368.233 433.439 368.233 432.596C368.212 432.164 368.181 431.661 368.089 431.075C368.068 430.972 368.058 430.849 368.017 430.736C367.451 427.817 365.323 423.789 358.241 422.496C357.902 422.414 357.542 422.373 357.152 422.322H357.121C356.566 422.24 356.011 422.189 355.415 422.138C355.22 422.128 355.025 422.107 354.829 422.097C340.646 420.99 334.365 416.233 334.365 416.233C334.365 416.233 326.144 417.88 318.435 416.237C318.435 416.237 317.531 417.738 316.73 420.348C316.607 420.79 316.473 421.263 316.35 421.766C316.319 421.859 316.299 421.961 316.268 422.075C316.216 422.27 316.176 422.496 316.134 422.722C316.124 422.784 316.103 422.866 316.103 422.928C316.103 422.98 316.072 423 316.072 423.041C315.867 424.11 315.713 425.282 315.651 426.545C315.592 427.86 315.602 429.268 315.767 430.748Z" fill="#FFE3D6"/>
<path d="M339.513 416.652C339.336 416.49 339.105 416.37 338.858 416.381C338.597 416.393 338.406 416.491 338.203 416.652C338.06 416.765 337.917 416.877 337.774 416.989C337.09 417.516 336.395 418.028 335.688 418.523C335.487 418.664 335.329 418.833 335.262 419.077C335.201 419.299 335.228 419.594 335.356 419.791C335.61 420.185 336.199 420.421 336.624 420.123C337.61 419.433 338.572 418.71 339.514 417.962C339.687 417.824 339.785 417.517 339.785 417.307C339.784 417.08 339.683 416.808 339.513 416.652Z" fill="white"/>
<path d="M343.184 418.301C342.837 417.983 342.211 417.909 341.873 418.301C341.195 419.09 340.438 419.808 339.618 420.448C339.486 420.547 339.355 420.646 339.22 420.741C339.019 420.883 338.862 421.05 338.794 421.295C338.733 421.517 338.76 421.812 338.887 422.009C339.14 422.401 339.732 422.641 340.155 422.341C341.269 421.553 342.293 420.647 343.183 419.611C343.346 419.422 343.455 419.212 343.454 418.956C343.455 418.73 343.354 418.458 343.184 418.301Z" fill="white"/>
<path d="M346.558 419.498C346.381 419.336 346.149 419.215 345.903 419.227C345.675 419.237 345.394 419.31 345.248 419.498L343.147 422.201C342.989 422.404 342.876 422.588 342.876 422.856C342.876 423.083 342.977 423.355 343.148 423.511C343.324 423.673 343.556 423.793 343.803 423.782C344.031 423.772 344.312 423.699 344.458 423.51L346.559 420.807C346.717 420.604 346.83 420.42 346.83 420.152C346.829 419.926 346.728 419.655 346.558 419.498Z" fill="white"/>
<path d="M350.3 420.371C349.854 420.135 349.288 420.257 349.028 420.71C348.57 421.496 348.115 422.275 347.657 423.061C347.373 423.479 347.501 424.133 347.96 424.376C348.406 424.612 348.972 424.49 349.232 424.037C349.69 423.251 350.145 422.472 350.603 421.686C350.887 421.267 350.759 420.613 350.3 420.371Z" fill="white"/>
<path d="M315.812 431.094C315.872 431.583 315.932 432.082 316.032 432.591C316.122 433.04 316.202 433.509 316.312 433.988L368.149 433.976C368.149 433.976 368.239 433.447 368.239 432.599C368.219 432.16 368.189 431.651 368.089 431.082L315.812 431.094Z" fill="#C08B89"/>
<path d="M293.776 224.45L280.372 416.233C272.691 419.052 264.448 416.233 264.448 416.233C264.448 416.233 252.409 279.378 257.488 224.827L293.776 224.45Z" fill="#EBA37D"/>
<path d="M334.37 416.233C334.37 416.233 325.817 418.276 318.434 416.233C305.188 347.485 285.688 224.342 285.688 224.342L320.272 224.079C328.527 275.125 334.37 416.233 334.37 416.233Z" fill="#EBA37D"/>
<path d="M335.724 317.486C320.271 329.369 250.892 318.558 250.892 318.558C250.892 318.558 250.941 316.639 251.044 313.339C251.048 313.213 251.052 313.084 251.056 312.954C251.079 312.264 251.102 311.52 251.125 310.722C251.133 310.596 251.136 310.47 251.14 310.34C251.827 289.443 253.959 235.118 257.877 224.066L320.27 224.078L334.282 308.761L334.347 309.165L334.683 311.183L334.748 311.591L335.724 317.486Z" fill="#C08B89"/>
<path d="M334.748 311.592C331.269 313.408 327.42 314.506 323.567 315.22C317.845 316.281 311.978 316.662 306.172 316.963C299.798 317.299 293.412 317.371 287.037 317.184C280.659 316.997 274.288 316.551 267.944 315.845C262.283 315.219 256.645 314.38 251.045 313.339C251.049 313.213 251.053 313.084 251.057 312.954C251.232 312.988 251.404 313.023 251.58 313.053C257.813 314.198 264.088 315.09 270.39 315.723C276.65 316.352 282.937 316.734 289.231 316.856C295.521 316.982 301.82 316.856 308.099 316.475C313.768 316.132 319.497 315.727 325.059 314.533C328.389 313.82 331.678 312.771 334.684 311.184L334.748 311.592Z" fill="#FFE3D6"/>
<path d="M334.347 309.166C330.971 310.864 327.271 311.905 323.567 312.592C317.845 313.653 311.978 314.03 306.172 314.335C299.798 314.671 293.412 314.743 287.037 314.556C280.659 314.369 274.288 313.923 267.944 313.217C262.31 312.588 256.698 311.756 251.125 310.722C251.133 310.596 251.136 310.47 251.14 310.34C251.285 310.371 251.434 310.397 251.579 310.424C257.812 311.568 264.087 312.461 270.389 313.094C276.649 313.723 282.936 314.101 289.23 314.227C295.52 314.353 301.819 314.227 308.098 313.845C313.767 313.498 319.496 313.097 325.058 311.903C328.239 311.216 331.387 310.228 334.282 308.76L334.347 309.166Z" fill="#FFE3D6"/>
<path d="M333.591 133.498C333.899 131.701 326.992 123.94 328.507 122.33C329.892 120.857 333.562 123.394 334.203 125.599C334.887 122.79 334.279 111.126 336.705 111.328C338.5 111.477 337.97 120.294 337.97 120.294C337.97 120.294 339.701 110.136 341.981 110.738C344.261 111.341 341.247 121.445 341.247 121.445C341.247 121.445 344.311 113.026 346.045 113.811C347.751 114.583 343.859 123.052 343.859 123.052C343.859 123.052 347.916 116.846 348.853 117.353C349.79 117.86 348.197 122.217 346.025 125.152C346.369 131.466 342.524 135.604 342.524 135.604L333.591 133.498Z" fill="#EBBDA4"/>
<path d="M307.313 134.214C315.661 137.497 321.212 169.151 321.212 169.151L331.828 132.14C331.828 132.14 341.276 132.446 344.782 134.825C344.782 134.825 337.197 171.008 335.919 176.036C332.023 191.358 315.137 190.979 309.345 181.91C299.058 165.802 307.313 134.214 307.313 134.214Z" fill="white"/>
<path d="M257.488 224.827C296.885 233.636 320.272 224.075 320.272 224.075C318.777 219.478 309.993 177.297 309.993 177.297C318.822 174.292 319.813 158.915 310.023 149.638L307.314 134.214L297.218 130.603L283.991 130.512L270.614 134.825L269.247 199.896L257.488 224.827Z" fill="#FFE3D6"/>
<path d="M281.742 131.237L288.879 188.746L285.688 254.374H248.132L265.293 198.913L270.614 134.825L281.742 131.237Z" fill="white"/>
<path d="M281.742 131.237L273.935 143.3L280.468 148.689L276.68 156.822L288.113 182.57L281.742 131.237Z" fill="#BEFCF3"/>
<path d="M298.991 131.237L303.216 188.034L310.597 254.373H327.881L310.841 177.562C319.584 172.173 320.5 161.193 310.841 149.196L307.314 134.213L298.991 131.237Z" fill="white"/>
<path d="M314.965 155.399C313.809 153.258 312.387 151.274 310.854 149.389C310.479 145.766 310.104 142.143 309.729 138.52C309.704 138.278 309.322 138.276 309.347 138.52C309.726 142.181 310.105 145.843 310.484 149.504C310.491 149.574 310.53 149.622 310.579 149.651C313.243 152.926 315.594 156.573 316.704 160.685C317.768 164.626 317.637 168.951 315.604 172.566C314.597 174.358 313.167 175.905 311.392 176.954C311.181 177.079 311.372 177.409 311.585 177.283C314.87 175.342 316.966 171.793 317.555 168.072C318.249 163.693 317.043 159.248 314.965 155.399Z" fill="#BEFCF3"/>
<path d="M302.594 148.867L307.166 142.701L298.991 131.237L302.832 182.875L307.943 156.415L302.594 148.867Z" fill="#BEFCF3"/>
<path d="M278.409 200.584L314.672 202.105L316.794 151.513L280.531 149.992L278.409 200.584Z" fill="#26645F"/>
<path d="M293.685 149.178C294.41 147.981 296.433 147.17 298.807 147.27C301.181 147.37 303.129 148.348 303.752 149.601L306.87 149.732L306.706 153.645L290.403 152.961L290.567 149.048L293.685 149.178Z" fill="#154340"/>
<path d="M311.178 162.269C314.444 161.333 316.512 158.224 316.512 158.224C319.921 159.321 323.244 175.107 315.735 176.741C312.561 177.386 310.306 176.547 308.905 177.155L305.087 166.807C305.554 164.337 307.818 161.488 311.178 162.269Z" fill="#EBA37D"/>
<path d="M270.614 134.825C264.379 137.01 256.695 174.468 255.359 181.628C253.847 189.728 258.717 197.065 265.795 197.13C272.873 197.195 309.993 177.296 309.993 177.296C309.993 177.296 308.436 170.157 304.605 165.806L272.742 177.154L276.768 160.341L270.614 134.825Z" fill="white"/>
<path d="M286.475 172.295C282.002 174.098 277.438 175.675 272.805 177.017C273.872 172.857 274.939 168.697 276.006 164.537C276.31 163.351 276.614 162.166 276.918 160.98C276.979 160.742 276.611 160.641 276.55 160.878C275.472 165.081 274.394 169.285 273.316 173.488C273.012 174.674 272.708 175.859 272.404 177.045C272.396 177.077 272.396 177.106 272.402 177.133C271.14 177.494 269.873 177.84 268.602 178.166C268.364 178.227 268.465 178.595 268.703 178.534C273.447 177.314 278.128 175.853 282.722 174.153C284.014 173.675 285.299 173.178 286.576 172.663C286.802 172.572 286.703 172.203 286.475 172.295Z" fill="#BEFCF3"/>
<path d="M286.837 188.625C284.017 189.909 281.196 191.194 278.376 192.478C275.686 193.703 273.013 195.044 270.204 195.979C268.677 196.487 267.1 196.853 265.489 196.946C265.245 196.96 265.242 197.342 265.488 197.327C268.395 197.159 271.142 196.137 273.784 194.977C276.603 193.739 279.393 192.433 282.194 191.157C283.805 190.423 285.417 189.689 287.029 188.955C287.251 188.854 287.059 188.524 286.837 188.625Z" fill="#BEFCF3"/>
<path d="M311.601 106.486C311.596 106.578 311.583 106.669 311.578 106.761C311.565 106.87 311.56 106.961 311.548 107.07C310.995 112.228 309.143 115.495 306.562 117.933C305.18 119.247 303.893 120.216 302.761 121.08C302.397 121.359 302.057 121.621 301.726 121.882C301.467 122.083 301.225 122.291 300.976 122.508C298.451 124.653 297.032 127.007 297.393 133.744C295.411 139.618 286.678 140.89 283.496 134.496C283.151 126.337 281.228 119.382 279.62 114.918C279.212 113.752 278.819 112.761 278.482 111.966C277.845 110.443 277.399 109.611 277.399 109.611C277.399 109.611 276.817 91.6669 279.141 86.7699C284.807 74.9519 307.069 77.6879 309.275 86.7439C311.391 95.3959 312.019 101.724 311.601 106.486Z" fill="#EBA37D"/>
<path d="M311.937 96.9239C309.635 92.3339 306.176 88.3299 301.969 85.3859C298.158 90.3749 292.798 94.0989 286.718 95.6649C286.016 100.567 282.706 105.099 278.096 106.908C276.506 106.81 275.112 105.376 274.526 103.895C273.939 102.414 273.932 100.777 273.938 99.1839C273.947 96.5449 273.971 93.8749 274.625 91.3179C275.737 86.9709 278.679 83.1829 282.448 80.7469C286.217 78.3119 290.762 77.1899 295.248 77.2559C298.403 77.3019 301.583 77.9319 304.383 79.3859C307.183 80.8399 309.583 83.1569 310.854 86.0449C312.373 89.4969 312.139 93.1589 311.937 96.9239Z" fill="#421F09"/>
<path d="M272.592 110.281C274.604 112.434 277.621 112.885 279.33 111.288C281.039 109.691 280.794 106.651 278.782 104.497C276.77 102.343 273.753 101.892 272.044 103.489C270.335 105.087 270.581 108.127 272.592 110.281Z" fill="#EBA37D"/>
<path d="M273.338 104.527C274.119 104.059 275.192 104.021 276.207 104.429C276.713 104.631 277.086 104.891 277.349 105.223C277.697 105.662 277.817 106.23 277.663 106.705C277.526 107.131 277.207 107.421 276.926 107.676C276.722 107.861 276.53 108.035 276.426 108.237C276.268 108.547 276.334 108.965 276.582 109.21C276.829 109.454 277.248 109.515 277.556 109.352C277.737 109.256 277.96 109.326 278.056 109.506C278.151 109.686 278.083 109.911 277.902 110.006C277.704 110.111 277.486 110.167 277.266 110.179C276.827 110.202 276.378 110.048 276.061 109.735C275.586 109.265 275.462 108.493 275.768 107.898C275.932 107.577 276.196 107.338 276.429 107.127C276.662 106.916 276.882 106.716 276.959 106.476C277.037 106.236 276.962 105.925 276.769 105.681C276.691 105.583 276.587 105.496 276.474 105.413C276.107 105.43 275.653 105.567 275.435 105.833C275.189 106.133 275.088 106.554 275.171 106.933C275.215 107.133 275.089 107.33 274.889 107.374C274.869 107.379 274.849 107.381 274.829 107.382C274.652 107.392 274.488 107.271 274.449 107.092C274.315 106.489 274.47 105.843 274.863 105.364C275.009 105.186 275.197 105.061 275.396 104.957C274.776 104.825 274.175 104.89 273.72 105.162C273.158 105.498 272.764 106.31 273.096 106.937C273.191 107.118 273.122 107.342 272.942 107.437C272.761 107.532 272.538 107.464 272.442 107.283C271.958 106.37 272.369 105.109 273.338 104.527Z" fill="#C16B5B"/>
<path d="M301.433 105.074C301.751 104.912 302.089 104.814 302.445 104.793C302.763 104.774 303.114 104.815 303.378 105.007C303.662 105.213 303.804 105.532 303.832 105.875C303.859 106.203 303.752 106.527 303.63 106.827C303.565 106.988 303.41 107.123 303.223 107.065C303.069 107.017 302.915 106.831 302.985 106.658C303.074 106.439 303.172 106.201 303.169 105.961C303.168 105.838 303.135 105.712 303.062 105.613C303.066 105.619 303.07 105.626 303.074 105.632C303.006 105.526 302.876 105.487 302.76 105.467C302.751 105.465 302.742 105.464 302.729 105.462C302.704 105.461 302.679 105.458 302.654 105.457C302.588 105.454 302.521 105.455 302.454 105.459C302.42 105.461 302.386 105.465 302.353 105.468C302.335 105.47 302.333 105.469 302.328 105.47C302.323 105.471 302.322 105.472 302.307 105.474C302.1 105.512 301.923 105.596 301.727 105.666C301.579 105.719 301.398 105.675 301.32 105.531C301.238 105.382 301.267 105.159 301.433 105.074Z" fill="#C16B5B"/>
<path d="M308.797 96.7009C307.047 95.7549 304.924 95.6649 303.139 96.5889C302.702 96.8149 302.46 97.3949 302.707 97.8479C303.028 98.4369 303.603 98.4359 304.143 98.1919C304.624 97.9739 305.144 97.8399 305.67 97.7979C305.668 97.7689 305.624 97.8189 305.653 97.8179C306.328 97.7809 306.995 97.9179 307.61 98.1949C307.646 98.2109 307.683 98.2289 307.741 98.2559C308.172 98.4839 308.752 98.4689 309.039 98.0109C309.286 97.6169 309.26 96.9509 308.797 96.7009Z" fill="black"/>
<path d="M297.448 96.7809C295.594 96.0579 293.476 96.2319 291.819 97.3699C291.413 97.6489 291.245 98.2539 291.547 98.6729C291.839 99.0789 292.416 99.2439 292.85 98.9459C293.017 98.8319 293.19 98.7319 293.366 98.6329C293.384 98.6239 293.38 98.6259 293.391 98.6199C293.423 98.6059 293.455 98.5909 293.487 98.5769C293.556 98.5469 293.626 98.5189 293.697 98.4929C293.885 98.4219 294.078 98.3629 294.273 98.3149C294.322 98.3029 294.636 98.2089 294.394 98.2849C294.475 98.2599 294.572 98.2579 294.656 98.2479C294.843 98.2259 295.032 98.2149 295.221 98.2139C295.322 98.2129 295.422 98.2189 295.523 98.2209C295.534 98.2209 295.537 98.2209 295.545 98.2209C295.56 98.2229 295.579 98.2259 295.609 98.2289C295.796 98.2519 295.982 98.2849 296.165 98.3289C296.263 98.3529 296.36 98.3789 296.456 98.4089C296.494 98.4209 296.532 98.4329 296.57 98.4459C296.577 98.4489 296.574 98.4469 296.582 98.4509C296.585 98.4519 296.588 98.4519 296.59 98.4529C296.593 98.4539 296.596 98.4549 296.599 98.4559C296.595 98.4549 296.596 98.4549 296.593 98.4539C297.049 98.6269 297.623 98.5399 297.851 98.0499C298.046 97.6289 297.938 96.9709 297.448 96.7809Z" fill="black"/>
<path d="M298.051 109.637C299.249 110.549 300.77 110.969 302.266 110.831C302.68 110.793 302.715 111.437 302.301 111.475C300.63 111.629 298.953 111.132 297.62 110.118C297.289 109.866 297.722 109.387 298.051 109.637Z" fill="#8E4136"/>
<path d="M293.777 103.165C293.749 104.005 294.407 104.709 295.248 104.737C296.088 104.765 296.792 104.106 296.82 103.266C296.848 102.426 296.19 101.722 295.349 101.694C294.509 101.666 293.805 102.324 293.777 103.165Z" fill="black"/>
<path d="M295.404 102.732C295.396 102.977 295.588 103.182 295.833 103.19C296.078 103.198 296.283 103.006 296.291 102.761C296.299 102.516 296.107 102.311 295.862 102.303C295.618 102.295 295.413 102.487 295.404 102.732Z" fill="white"/>
<path d="M304.884 102.858C304.856 103.698 305.514 104.402 306.355 104.43C307.195 104.458 307.899 103.799 307.927 102.959C307.955 102.119 307.297 101.415 306.456 101.387C305.615 101.359 304.912 102.018 304.884 102.858Z" fill="black"/>
<path d="M306.511 102.425C306.503 102.67 306.695 102.875 306.94 102.883C307.185 102.891 307.39 102.699 307.398 102.454C307.406 102.209 307.214 102.004 306.969 101.996C306.724 101.988 306.519 102.18 306.511 102.425Z" fill="white"/>
</svg>
